<svg width="98" height="22" fill="none" xmlns="http://www.w3.org/2000/svg"><g clip-path="url(#clip0_406_268)" fill="#fff"><path d="M85.22 17.807c.635 0 1.304-.082 1.939-.25l.365-2.118c-.35.05-.684.083-1.034.083-.383 0-.682-.133-.682-.567 0-.068.016-.133.035-.218l.666-3.775h1.786l.352-1.966h-1.804l.452-2.489H84.59l-.431 2.489h-1.085l-.333 1.966h1.068l-.783 4.476c-.05.184-.05.367-.05.55 0 1.367 1.083 1.818 2.25 1.818m-8.344.05c1.972 0 4.207-.75 4.207-3.12 0-2.103-2.57-2.339-3.906-2.874-.283-.1-.468-.215-.468-.467 0-.685.837-.836 1.371-.836.683 0 1.6.353 2.085.769l1.25-1.685c-1.001-.733-1.967-.966-3.32-.966-2.005 0-3.806 1.033-3.806 3.068 0 1.587 1.285 2.089 2.453 2.454.852.285 1.637.435 1.637.937 0 .767-.937.802-1.487.802-.868 0-1.802-.435-2.42-.985l-1.352 1.702c1.02.833 2.287 1.2 3.755 1.2m-9.748-2.085c-.718 0-1.252-.43-1.252-1.164 0-.1.017-.2.032-.3l.37-2.063c.151-.865.752-1.546 1.667-1.546.702 0 1.352.382 1.352 1.148 0 .098 0 .2-.015.283l-.385 2.113c-.151.898-.853 1.53-1.77 1.53m-1.334 2.085c.966 0 2.052-.533 2.687-1.234h.066l-.183 1.035h2.621l1.568-8.777h-2.653l-.169.8h-.05c-.434-.701-1.467-.967-2.237-.967-1.985 0-3.47 1.285-3.82 3.237-.169.887-.334 1.77-.484 2.672-.05.25-.068.485-.068.735 0 1.666 1.137 2.5 2.722 2.5m-8.363.018c1.47 0 2.556-.3 3.639-.818l-.568-1.85c-.848.315-1.635.565-2.486.565-.752 0-1.622-.317-1.622-1.2 0-.452.252-1.821.368-2.372.184-.902.702-1.469 1.655-1.469.652 0 1.166.333 1.166 1.035 0 .183-.032.35-.065.534h2.437c.05-.301.114-.634.114-.936 0-1.9-1.718-2.668-3.369-2.668-2.404 0-4.29 1.435-4.74 3.822-.166.802-.367 1.636-.367 2.454 0 2.1 2.018 2.903 3.838 2.903zM47.15 15.772c-.7 0-1.235-.433-1.235-1.167 0-.1 0-.202.018-.3l.365-2.07c.168-.887.802-1.554 1.72-1.554.7 0 1.317.385 1.317 1.135 0 .102-.015.2-.032.302l-.385 2.121c-.15.902-.85 1.535-1.77 1.535m-1.334 2.085c.969 0 2.052-.5 2.687-1.233h.069l-.185 1.035h2.62L53.11 5.762h-2.687l-.704 3.92h-.015c-.433-.667-1.402-.967-2.17-.967-1.97 0-3.537 1.266-3.887 3.237-.168.887-.318 1.77-.483 2.672-.05.25-.068.5-.068.752 0 1.666 1.134 2.483 2.719 2.483zM36.7 15.774c-.717 0-1.252-.431-1.252-1.164 0-.1.016-.2.035-.3l.367-2.063c.148-.866.75-1.547 1.668-1.547.7 0 1.352.383 1.352 1.149 0 .098 0 .2-.017.282l-.383 2.113c-.152.899-.852 1.53-1.77 1.53zm-1.334 2.085c.967 0 2.054-.533 2.687-1.233h.067l-.181 1.035h2.62l1.569-8.777h-2.656l-.166.8h-.05c-.434-.702-1.47-.967-2.237-.967-1.985 0-3.47 1.284-3.822 3.237-.165.886-.332 1.77-.482 2.671-.05.25-.068.485-.068.735 0 1.666 1.135 2.5 2.718 2.5m-8.794-2.05c-.702 0-1.254-.317-1.254-1.067 0-.1.018-.218.035-.318l.383-2.171c.15-.885.769-1.485 1.686-1.485.685 0 1.222.4 1.222 1.12 0 .1 0 .218-.018.317l-.384 2.17c-.15.869-.787 1.436-1.67 1.436m-.369 2.05c2.256 0 4.374-1.317 4.791-3.654l.316-1.818c.052-.234.067-.502.067-.735 0-2.07-1.767-2.952-3.62-2.952-2.289 0-4.356 1.416-4.791 3.737l-.335 1.902c-.048.235-.065.47-.065.702 0 2.087 1.835 2.819 3.637 2.819zm-11.681-.2h2.704l.8-4.573c.266-1.52 1.453-2.055 2.62-2.055.25 0 .818.035 1.22.1l.417-2.317a3.556 3.556 0 00-.818-.083c-1.067 0-2.32.75-2.937 1.618h-.084l.269-1.468h-2.637l-1.552 8.777-.002.002zM8.58 15.88c-.7 0-1.302-.383-1.302-1.15 0-.085 0-.2.016-.283l.35-2.032c.167-.931.817-1.612 1.804-1.612.7 0 1.25.398 1.25 1.131 0 .098-.015.2-.033.3l-.384 2.163c-.15.864-.8 1.483-1.702 1.483m.282 2c1.953 0 3.738-1.267 4.088-3.252.152-.885.317-1.77.467-2.671.05-.25.068-.485.068-.75 0-1.668-1.118-2.486-2.719-2.486-.986 0-1.954.485-2.621 1.2h-.05l.733-4.153H6.14L4.036 17.666H6.64l.166-.818h.067c.419.685 1.204 1.035 1.987 1.035"/><path d="M91.781 10.444l.402-2.381h1.98l.309-2.077h-1.887l.424-2.378h-2.358l-.426 2.378h-1.843l-.407 2.077h1.868l-.432 2.381h2.372-.002z"/></g><defs><clipPath id="clip0_406_268"><path fill="#fff" d="M0 0h97.778v22H0z"/></clipPath></defs></svg>