<svg width="48" height="33" fill="none" xmlns="http://www.w3.org/2000/svg"><g clip-path="url(#clip0_404_211)"><path d="M3.75 14.799H.004v-2.792c1.984.023 4.432-.582 4.872-2.743h2.767v17.815H3.75V14.8zm6.075-.777c0-3.64 1.958-5.146 5.46-5.146 4.409 0 5.485 2.112 5.412 6.19v6.553c0 3.98-1.273 5.898-5.46 5.898-3.428 0-5.412-1.505-5.412-5.024V14.02v.001zm6.783 0c0-.267.146-2.112-1.322-2.112-1.323 0-1.372 1.092-1.372 2.112v8.18c0 1.067 0 2.281 1.372 2.281 1.395-.047 1.322-1.65 1.322-2.281v-8.18zm4.944-4.757H32.13V12.3c-1.542 2.694-2.521 5.656-3.306 8.641-.563 2.112-.832 3.956-1.076 6.14h-4.236c0-2.475 1.764-7.985 2.84-10.315l1.91-4.224h-6.71V9.264v.001zm18.193 7.087c.833-.049 1.812.024 2.522-.485.563-.389.783-1.407.783-2.04 0-1.043-.293-1.868-1.445-1.868-1.42 0-1.274 1.676-1.322 2.646h-3.918l.024-1.334c.097-2.719 2.767-4.393 5.313-4.393 3.134 0 5.241 1.36 5.241 4.684 0 1.916-.71 3.228-2.474 4.054v.048c2.252.558 2.914 2.549 2.914 4.49 0 3.665-2.105 5.364-5.68 5.364-3.355 0-5.118-1.82-5.314-5.048l-.024-1.237h3.869c.073 1.214-.171 3.252 1.567 3.252 1.322 0 1.494-1.287 1.494-2.33 0-.826-.146-2.064-.93-2.55-.76-.436-1.788-.266-2.62-.339v-2.914zm-5.598-.001h-1.901V33h1.9V16.351z" fill="#F6A200"/><path d="M0 6.53V.151h3.456v1.276H1.51v1.174h1.886v1.275H1.51v1.378h2.05V6.53H0v-.002zm4.21 0V.151h1.51v5.102h1.844v1.275H4.21zm3.886 0V.151h1.639c.549 0 1.209.017 1.697.298.583.34.677.961.677 1.573v2.83c-.008.638-.206 1.106-.643 1.378-.395.255-.875.298-1.338.298H8.096zm1.51-1.15c1.012.07 1.02-.339.995-1.19V2.109c-.009-.748-.257-.79-.995-.807v4.08zm7.298-.883c0 1.436-.505 2.185-2.032 2.185-1.527 0-2.059-.749-2.059-2.185V1.904C12.813.68 13.551 0 14.873 0c1.32 0 2.03.68 2.03 1.904v2.593zm-1.51-2.491c0-.392-.034-.859-.532-.859s-.54.467-.54.859v2.618c0 .365.059.91.549.91.49 0 .523-.545.523-.91V2.006zm3.714 4.524h-1.51V.151h2.204c1.235 0 1.853.494 1.853 1.76 0 .68-.163 1.165-.797 1.453v.017c.42.094.72.382.746.824.042.51.05 1.607.137 2.016.034.085.078.16.145.22v.086H20.24a1.35 1.35 0 01-.086-.365c-.026-.561.008-1.088-.034-1.479-.043-.391-.163-.646-.515-.671h-.498v2.516zm0-3.665h.515c.437 0 .54-.4.54-.79 0-.757-.317-.791-1.055-.774v1.564zm2.976 3.665L23.49.151h1.817l1.398 6.376H25.18l-.215-1.24h-1.184l-.18 1.24h-1.519l.002.001zm2.315-5.22h-.017l-.437 2.855h.875L24.4 1.31zm2.771 5.22V.151h1.639c.549 0 1.209.017 1.698.298.583.34.678.961.678 1.573v2.83c-.009.638-.206 1.106-.644 1.378-.393.255-.875.298-1.337.298H27.17zm1.51-1.15c1.012.07 1.02-.339.995-1.19V2.109c-.009-.748-.257-.79-.995-.807v4.08zm7.298-.883c0 1.436-.505 2.185-2.032 2.185-1.527 0-2.058-.749-2.058-2.185V1.904C31.887.68 32.624 0 33.945 0c1.32 0 2.032.68 2.032 1.904v2.593zm-1.51-2.491c0-.392-.034-.859-.532-.859s-.54.467-.54.859v2.618c0 .365.06.91.549.91.49 0 .523-.545.523-.91V2.006z" fill="#0062A7"/><path d="M36.733 6.53V.151h3.55v1.276h-2.04v1.13h1.878v1.276h-1.878v2.695h-1.51zm4.287 0V.151h2.127l.78 3.766h.018L44.75.152h2.11V6.53h-1.44l.153-4.999h-.017l-1.064 5h-1.123l-1.037-5h-.017l.137 5H41.02z" fill="#7DA9DB"/></g><defs><clipPath id="clip0_404_211"><path fill="#fff" d="M0 0h47.385v33H0z"/></clipPath></defs></svg>