<?xml version="1.0" encoding="UTF-8"?>
<svg id="Layer_1" data-name="Layer 1" xmlns="http://www.w3.org/2000/svg" xmlns:xlink="http://www.w3.org/1999/xlink" viewBox="0 0 50 20.27">
  <defs>
    <style>
      .cls-1 {
        fill: #003e5e;
      }

      .cls-1, .cls-2, .cls-3, .cls-4, .cls-5, .cls-6, .cls-7 {
        stroke-width: 0px;
      }

      .cls-2 {
        fill: none;
      }

      .cls-8 {
        clip-path: url(#clippath-1);
      }

      .cls-3 {
        fill: url(#radial-gradient-2);
      }

      .cls-9 {
        clip-path: url(#clippath);
      }

      .cls-4 {
        fill: url(#radial-gradient);
      }

      .cls-5 {
        fill: url(#Gradiente_sem_nome_7);
      }

      .cls-6 {
        fill: url(#Gradiente_sem_nome_8);
      }

      .cls-7 {
        fill: #585856;
      }
    </style>
    <clipPath id="clippath">
      <path class="cls-2" d="m23.52,6.98c0-1.22.99-2.21,2.17-2.21s2.17.99,2.17,2.21-.99,2.21-2.17,2.21-2.17-.99-2.17-2.21m-3.09,0c0,2.16,1.27,4.02,3.06,4.87.49,0,.97,0,1.47,0,.97,0,1.93.01,2.87.03,1.82-.84,3.12-2.72,3.12-4.9,0-2.97-2.4-5.37-5.26-5.37s-5.26,2.4-5.26,5.37"/>
    </clipPath>
    <radialGradient id="Gradiente_sem_nome_8" data-name="Gradiente sem nome 8" cx="-267.62" cy="404.94" fx="-267.62" fy="404.94" r=".12" gradientTransform="translate(16189.03 24458.45) scale(60.39 -60.39)" gradientUnits="userSpaceOnUse">
      <stop offset="0" stop-color="#008ac6"/>
      <stop offset="1" stop-color="#00405c"/>
    </radialGradient>
    <clipPath id="clippath-1">
      <path class="cls-2" d="m16.08,7.99h.6c.43,0,1.08.13,1.08.88,0,.36-.17.95-.99.95h-.68v-1.83Zm0-3.85h.64c.3,0,1.04,0,1.04.85s-.74.87-1.04.87h-.64v-1.72Zm-2.67-2.27v10.23h3.85c2.53,0,3.23-1.85,3.23-2.86,0-1.66-1.15-2.19-1.38-2.33.37-.2,1.32-.64,1.32-2.2s-.91-2.84-2.96-2.84h-4.06Zm17.96,0v10.15c.45.02.9.05,1.35.08h4.03l1.61-2.7h-4.32v-1.07h2.1v-2.7h-2.1v-1.07h4.32l-1.51-2.7h-5.49Zm11.57,0l-1.31,2.32-1.32-2.32h-3.13l2.89,5.06-2.94,5.17h3.13l1.38-2.43,1.38,2.43h3.13l-2.96-5.17,2.88-5.06h-3.13ZM3.79,6.98c0,3.48,2.4,5.37,5.6,5.37.95,0,2.49-.2,3.35-.55v-4.96h-2.67v2.54c-.26.13-.65.21-.94.21-1.46,0-2.61-1.16-2.61-2.61s1.15-2.61,2.61-2.61c.88,0,1.59.21,2.3.74l1.16-2.59c-.6-.44-2.19-.91-3.21-.91-3.37,0-5.6,2.32-5.6,5.37"/>
    </clipPath>
    <radialGradient id="Gradiente_sem_nome_7" data-name="Gradiente sem nome 7" cx="-249.88" cy="383.15" fx="-249.88" fy="383.15" r=".12" gradientTransform="translate(60228.57 92304.98) scale(240.9 -240.9)" gradientUnits="userSpaceOnUse">
      <stop offset="0" stop-color="#0071a5"/>
      <stop offset="1" stop-color="#00405c"/>
    </radialGradient>
    <radialGradient id="radial-gradient" cx="-175.34" cy="-60.12" fx="-175.34" fy="-60.12" r="12.06" gradientTransform="translate(282.51 101.07) scale(1.47)" gradientUnits="userSpaceOnUse">
      <stop offset=".04" stop-color="#f6e189"/>
      <stop offset=".56" stop-color="#dfc463"/>
      <stop offset="1" stop-color="#cfaf48"/>
    </radialGradient>
    <radialGradient id="radial-gradient-2" cx="-173.97" cy="-65.11" fx="-173.97" fy="-65.11" r="4.14" gradientTransform="translate(282.51 101.07) scale(1.47)" gradientUnits="userSpaceOnUse">
      <stop offset="0" stop-color="#f6e189"/>
      <stop offset=".15" stop-color="#efd87e"/>
      <stop offset=".42" stop-color="#dec260"/>
      <stop offset=".77" stop-color="#c29f31"/>
      <stop offset="1" stop-color="#ae8610"/>
    </radialGradient>
  </defs>
  <g>
    <g class="cls-9">
      <rect class="cls-6" x="20.43" y="1.61" width="10.52" height="10.27"/>
    </g>
    <g class="cls-8">
      <rect class="cls-5" x="3.79" y="1.61" width="42.36" height="10.74"/>
    </g>
  </g>
  <path class="cls-1" d="m25.87,11.85h-.17c.17-.9.31-1.8.43-2.7.27-.06.53-.17.75-.33-.3,1.02-.64,2.03-1.02,3.03m-5.24-3.42c-.01-.05-.03-.1-.04-.15.99-.64,1.99-1.25,3-1.85-.05.18-.07.36-.07.55,0,.08,0,.15.01.23-.98.39-1.94.8-2.91,1.22m3.53-6.58l.1-.03c.92.67,1.75,1.44,2.53,2.25.17-.73.39-1.55.51-2.19.05.02.09.03.14.05.21.82.27,1.68.31,2.52.75-.19,1.53-.4,2.31-.42.04.06.08.13.12.2-.62.32-1.22.68-1.83,1.03.89.45,1.8.95,2.59,1.6v.14s0,.04,0,.04c-.79-.38-1.76-.72-2.66-.94.71,1.21,1.36,2.47,1.83,3.79-.05.08-.04.06-.09.13-.61-1.04-1.37-2.16-2.18-3.21-.05-1.17-1.01-2.02-2.14-2.03-.27,0-.51.04-.74.13-1.02-.38-2.32-.79-3.53-1.05l.08-.11.02-.02.02-.02.02-.02.03-.04c1.47.13,3.03.4,4.47.75-.44-.68-1.48-1.93-1.97-2.5h.04s.02-.02.02-.02h0Zm-3.98,1.6s.04.1.06.15c-.22-.07-.44-.13-.66-.19.2.03.4.03.61.05m.19,4.97s.02.07.03.11l-.45.13c.2-.13.22-.11.42-.24m10.99-1.14v-.16c.23.16.48.33.58.47-.15-.13-.34-.2-.58-.3"/>
  <path class="cls-4" d="m0,14.47c6.07-1.52,15.02-2.47,25-2.47s18.93.96,25,2.47h0c-5.21-2.03-14.46-3.37-25-3.37S5.21,12.44,0,14.47"/>
  <path class="cls-3" d="m26.12,4.2c-2.16-.52-4.38-.85-6.6-.82,2.2.29,4.35.9,6.44,1.66-2.06,1.11-4.07,2.32-6.02,3.61,2.19-.98,4.42-1.89,6.68-2.72-.17,2.23-.48,4.45-.93,6.65.81-2.04,1.49-4.14,1.99-6.28,1.19,1.52,2.31,3.15,3.05,4.95-.45-1.88-1.3-3.65-2.29-5.32,1.23.4,2.55.83,3.56,1.66-.92-1.11-2.23-1.84-3.49-2.49.72-.42,1.44-.85,2.19-1.22-.82-.03-1.9.18-2.8.41-.05-1.04-.13-2.11-.49-3.09-.04.92-.26,1.83-.47,2.72-1.16-1.21-2.44-2.34-3.92-3.15,1.21.96,2.2,2.19,3.1,3.44"/>
  <g>
    <path class="cls-7" d="m37.86.25s.09-.01.14-.01c.27,0,.38.14.38.36,0,.17-.05.32-.15.43-.09.11-.23.16-.41.16-.05,0-.1,0-.14,0l.18-.93Zm-.43,1.1c.07.01.2.02.34.02.26,0,.45-.05.6-.18.16-.13.26-.36.26-.6,0-.18-.06-.3-.15-.38-.1-.1-.27-.15-.47-.15-.12,0-.24,0-.34.03l-.24,1.26Z"/>
    <path class="cls-7" d="m39.29.67c0,.11-.15.14-.38.14.03-.11.12-.24.26-.24.07,0,.12.04.12.1m.07.48c-.07.03-.15.06-.26.06-.09,0-.16-.03-.19-.1-.02-.04-.03-.1-.03-.13.36,0,.61-.07.61-.31,0-.16-.12-.26-.3-.26-.32,0-.53.31-.53.59,0,.23.12.39.38.39.11,0,.24-.03.33-.07l-.02-.16Z"/>
    <path class="cls-7" d="m39.48,1.31s.15.07.26.07c.22,0,.4-.11.4-.32,0-.12-.09-.2-.19-.25-.08-.04-.12-.08-.12-.13,0-.06.06-.11.14-.11.08,0,.14.02.17.04l.06-.16s-.12-.05-.22-.05c-.22,0-.38.13-.38.31,0,.11.08.19.18.24.09.05.12.09.12.14,0,.06-.05.12-.14.12-.08,0-.18-.03-.22-.06l-.06.16Z"/>
    <path class="cls-7" d="m40.87.9c-.04.19-.16.3-.26.3s-.15-.09-.15-.2c0-.21.14-.42.33-.42.06,0,.1.02.13.04l-.06.28Zm.17-.9l-.08.43s-.1-.03-.14-.03c-.34,0-.58.3-.58.63,0,.21.12.35.28.35.12,0,.24-.06.32-.19h0l-.02.16h.21c0-.1.02-.22.04-.33l.2-1.03h-.22Z"/>
    <path class="cls-7" d="m41.84.67c0,.11-.15.14-.38.14.03-.11.12-.24.26-.24.07,0,.12.04.12.1m.07.48c-.07.03-.15.06-.26.06-.09,0-.15-.03-.19-.1-.02-.04-.03-.1-.03-.13.36,0,.61-.07.61-.31,0-.16-.12-.26-.3-.26-.32,0-.53.31-.53.59,0,.23.12.39.38.39.11,0,.24-.03.33-.07l-.02-.16Z"/>
    <polygon class="cls-7" points="42.93 .12 42.61 .26 42.63 .44 42.86 .33 42.86 .33 42.67 1.36 42.88 1.36 43.12 .12 42.93 .12"/>
    <path class="cls-7" d="m43.85.27c.12,0,.17.09.17.21,0,.04,0,.08-.01.11,0,.02-.02.04-.03.06-.04.06-.12.11-.2.11-.1,0-.16-.08-.16-.19,0-.15.11-.3.24-.3m-.49,1.11s.08,0,.14,0c.15-.01.31-.07.43-.17.16-.13.32-.4.32-.7,0-.23-.11-.42-.37-.42-.27,0-.49.24-.49.5,0,.18.12.33.32.33.09,0,.19-.04.26-.11h0c-.05.12-.12.21-.21.28-.08.06-.17.09-.26.1-.05,0-.08,0-.12,0l-.03.19Z"/>
    <polygon class="cls-7" points="44.81 .12 44.49 .26 44.5 .44 44.73 .33 44.74 .33 44.54 1.36 44.76 1.36 44.99 .12 44.81 .12"/>
    <path class="cls-7" d="m45.15,1.3s.18.08.32.08c.27,0,.52-.16.52-.41,0-.14-.08-.25-.21-.28h0c.15-.04.28-.16.28-.32,0-.17-.15-.28-.36-.28-.12,0-.24.03-.33.08l.04.17c.06-.04.15-.07.25-.07.11,0,.16.05.16.13,0,.14-.17.2-.29.2h-.05l-.03.17h.06c.16,0,.26.06.26.19,0,.11-.09.22-.27.22-.12,0-.21-.04-.26-.07l-.07.18Z"/>
  </g>
  <g>
    <path class="cls-7" d="m6.64,14.64c-.14-.11-.35-.17-.65-.17s-.5.02-.65.04v2.09h.47v-.76s.1,0,.16,0c.28,0,.52-.07.69-.22.12-.12.19-.29.19-.5s-.09-.38-.23-.49Zm-.66.85c-.07,0-.12,0-.16-.01v-.62s.1-.02.2-.02c.24,0,.37.12.37.31,0,.22-.16.34-.41.34Zm1.93-.45s-.06,0-.1,0c-.15,0-.34.09-.41.32h-.01v-.28h-.43c0,.13.01.28.01.5v1.03h.48v-.78s0-.08,0-.11c.03-.15.15-.24.33-.24.05,0,.09,0,.13.02v-.45Zm.76,0c-.53,0-.78.43-.78.82,0,.48.3.78.82.78.21,0,.4-.03.56-.1l-.06-.32c-.13.04-.26.06-.42.06-.22,0-.42-.09-.43-.29h.99s.02-.11.02-.19c0-.38-.19-.77-.68-.77Zm-.32.63c.01-.13.09-.31.29-.31.22,0,.27.19.27.31h-.56Zm1.86.12c-.03.13-.06.25-.08.37h0c-.02-.12-.05-.24-.09-.37l-.21-.71h-.52l.56,1.53h.48l.57-1.53h-.5l-.2.71Zm1-1.38c-.15,0-.25.1-.25.24,0,.13.1.24.25.24s.26-.11.26-.24c0-.14-.1-.24-.25-.24Zm-.24,2.2h.48v-1.53h-.48v1.53Zm2.19-2.23h-.48v.83h0c-.07-.11-.22-.17-.4-.17-.37,0-.69.3-.69.82,0,.48.29.79.66.79.2,0,.38-.09.48-.26h0l.02.23h.42c0-.1-.01-.29-.01-.46v-1.77Zm-.48,1.55s0,.08-.01.11c-.03.13-.14.23-.28.23-.2,0-.33-.16-.33-.42,0-.24.11-.44.33-.44.15,0,.25.11.28.24,0,.03,0,.06,0,.09v.2Zm1.39-.88c-.53,0-.77.43-.77.82,0,.48.3.78.82.78.21,0,.4-.03.56-.1l-.06-.32c-.13.04-.26.06-.42.06-.22,0-.42-.09-.43-.29h.99s.02-.11.02-.19c0-.38-.19-.77-.68-.77Zm-.32.63c.01-.13.09-.31.29-.31.22,0,.27.19.27.31h-.56Zm.3-1.06h0l.16.27h.31l-.31-.48h-.32l-.31.48h.31l.16-.27Zm1.74.43c-.25,0-.41.15-.47.24h0l-.02-.21h-.41c0,.13.01.3.01.49v1.04h.48v-.88s0-.09.02-.12c.03-.09.11-.18.24-.18.17,0,.24.14.24.33v.85h.48v-.91c0-.45-.24-.66-.55-.66Zm1.59.37c.12,0,.21.02.27.05l.08-.35c-.1-.04-.24-.06-.36-.06-.57,0-.88.37-.88.82,0,.48.32.79.81.79.18,0,.34-.03.43-.07l-.06-.35c-.07.03-.16.05-.27.05-.23,0-.42-.15-.42-.43,0-.25.16-.43.41-.43Zm.45,1.2h.48v-1.53h-.48v1.53Zm.24-2.2c-.15,0-.25.1-.25.24,0,.13.1.24.25.24s.26-.11.26-.24c0-.14-.1-.24-.25-.24Zm1.75,1.3c0-.36-.16-.66-.67-.66-.28,0-.49.08-.6.14l.09.31c.1-.06.27-.12.42-.12.24,0,.28.12.28.2v.02c-.54,0-.9.19-.9.59,0,.24.18.47.5.47.18,0,.34-.07.44-.19h0l.03.15h.43c-.02-.08-.02-.23-.02-.37v-.53Zm-.46.35s0,.06,0,.08c-.03.1-.13.18-.25.18-.11,0-.19-.06-.19-.18,0-.19.19-.24.45-.24v.17Zm1.85-1.01c-.53,0-.77.43-.77.82,0,.48.3.78.82.78.21,0,.4-.03.56-.1l-.06-.32c-.13.04-.26.06-.42.06-.22,0-.42-.09-.43-.29h.99s.02-.11.02-.19c0-.38-.19-.77-.68-.77Zm-.32.63c.01-.13.09-.31.29-.31.22,0,.27.19.27.31h-.56Zm2.45-.31c-.27-.1-.39-.16-.39-.3,0-.11.1-.2.31-.2s.36.06.44.1l.11-.38c-.13-.06-.3-.11-.54-.11-.5,0-.8.28-.8.64,0,.31.23.5.58.62.25.09.35.17.35.3s-.12.23-.34.23c-.2,0-.4-.07-.53-.13l-.1.4c.12.07.36.13.6.13.58,0,.85-.3.85-.66,0-.3-.18-.49-.55-.63Zm1.41-.31c-.53,0-.78.43-.78.82,0,.48.3.78.82.78.21,0,.4-.03.56-.1l-.06-.32c-.13.04-.26.06-.42.06-.22,0-.42-.09-.43-.29h.99s.02-.11.02-.19c0-.38-.19-.77-.68-.77Zm-.32.63c.01-.13.09-.31.29-.31.22,0,.27.19.27.31h-.56Zm2.17-.41h0c-.08-.13-.21-.22-.42-.22-.38,0-.7.31-.7.81,0,.44.27.75.65.75.18,0,.32-.07.41-.2h0v.1c0,.28-.17.4-.4.4-.18,0-.35-.06-.45-.12l-.09.36c.14.08.35.12.55.12.23,0,.45-.04.62-.19.17-.15.23-.4.23-.69v-.86c0-.23,0-.36.01-.46h-.41l-.02.18Zm-.06.67s0,.09-.02.13c-.03.11-.13.19-.25.19-.2,0-.31-.18-.31-.41,0-.28.14-.44.31-.44.13,0,.22.08.26.21,0,.03,0,.06,0,.09v.23Zm2.15-.85h-.48v.91s0,.08-.02.1c-.03.08-.11.17-.24.17-.17,0-.24-.14-.24-.36v-.82h-.48v.9c0,.47.23.67.54.67.28,0,.42-.16.48-.25h0l.02.22h.41c0-.13-.01-.29-.01-.49v-1.04Zm1.17-.03s-.06,0-.1,0c-.15,0-.34.09-.41.32h-.01l-.02-.28h-.41c0,.13.01.28.01.5v1.03h.48v-.78s0-.08,0-.11c.03-.15.15-.24.33-.24.05,0,.09,0,.13.02v-.45Zm.8,0c-.49,0-.82.32-.82.81s.35.79.79.79c.41,0,.81-.26.81-.82,0-.46-.31-.78-.78-.78Zm-.01,1.26c-.2,0-.31-.2-.31-.46,0-.23.08-.46.31-.46.22,0,.3.23.3.46,0,.28-.12.46-.3.46Zm2.9-1.92h-.48v.83h0c-.07-.11-.22-.17-.41-.17-.37,0-.69.3-.69.82,0,.48.29.79.66.79.2,0,.38-.09.48-.26h0l.02.23h.42c0-.1-.01-.29-.01-.46v-1.77Zm-.48,1.55s0,.08-.01.11c-.03.13-.14.23-.28.23-.2,0-.33-.16-.33-.42,0-.24.11-.44.33-.44.15,0,.25.11.28.24,0,.03,0,.06,0,.09v.2Zm1.39-.88c-.53,0-.77.43-.77.82,0,.48.3.78.82.78.21,0,.4-.03.55-.1l-.06-.32c-.13.04-.26.06-.42.06-.22,0-.42-.09-.43-.29h.99s.02-.11.02-.19c0-.38-.19-.77-.68-.77Zm-.32.63c.01-.13.09-.31.29-.31.22,0,.27.19.27.31h-.56Zm2.92-1.02c-.14-.11-.35-.17-.65-.17s-.5.02-.65.04v2.09h.47v-.76s.1,0,.16,0c.28,0,.52-.07.69-.22.13-.12.19-.29.19-.5s-.09-.38-.23-.49Zm-.66.85c-.07,0-.12,0-.16-.01v-.62s.1-.02.2-.02c.24,0,.37.12.37.31,0,.22-.16.34-.41.34Zm1.63-.46c-.53,0-.78.43-.78.82,0,.48.3.78.82.78.21,0,.4-.03.55-.1l-.06-.32c-.13.04-.26.06-.42.06-.22,0-.42-.09-.43-.29h.99s.02-.11.02-.19c0-.38-.19-.77-.68-.77Zm-.32.63c.01-.13.09-.31.29-.31.22,0,.27.19.27.31h-.56Zm1.79,0c-.19-.07-.25-.1-.25-.18,0-.08.07-.13.18-.13.13,0,.26.05.33.09l.08-.33c-.09-.05-.25-.09-.43-.09-.38,0-.62.22-.62.5,0,.18.12.35.44.46.18.06.23.1.23.18s-.06.13-.2.13-.32-.06-.41-.12l-.08.34c.12.06.29.11.5.11.44,0,.66-.21.66-.5,0-.23-.13-.37-.42-.47Zm1.21,0c-.19-.07-.25-.1-.25-.18,0-.08.07-.13.18-.13.13,0,.26.05.33.09l.08-.33c-.09-.05-.25-.09-.43-.09-.38,0-.62.22-.62.5,0,.18.12.35.44.46.18.06.23.1.23.18s-.06.13-.2.13-.32-.06-.41-.12l-.08.34c.12.06.29.11.5.11.44,0,.67-.21.67-.5,0-.23-.13-.37-.42-.47Zm1.28-.63c-.49,0-.82.32-.82.81s.34.79.79.79c.41,0,.81-.26.81-.82,0-.46-.31-.78-.78-.78Zm-.01,1.26c-.2,0-.31-.2-.31-.46,0-.23.08-.46.31-.46.22,0,.3.23.3.46,0,.28-.12.46-.3.46Zm2.22-.6c0-.36-.16-.66-.67-.66-.28,0-.49.08-.6.14l.09.31c.1-.06.27-.12.42-.12.23,0,.28.12.28.2v.02c-.54,0-.9.19-.9.59,0,.24.19.47.5.47.18,0,.34-.07.44-.19h0l.03.15h.43c-.02-.08-.02-.23-.02-.37v-.53Zm-.46.35s0,.06,0,.08c-.03.1-.13.18-.25.18-.11,0-.19-.06-.19-.18,0-.19.19-.24.44-.24v.17Zm1.34-.38c-.19-.07-.25-.1-.25-.18,0-.08.07-.13.18-.13.13,0,.26.05.33.09l.08-.33c-.09-.05-.25-.09-.43-.09-.38,0-.62.22-.62.5,0,.18.12.35.44.46.18.06.23.1.23.18s-.06.13-.2.13-.32-.06-.41-.12l-.08.34c.12.06.29.11.5.11.44,0,.67-.21.67-.5,0-.23-.13-.37-.42-.47Z"/>
    <path class="cls-1" d="m9.96,18.29l-.79,1.53h.2l.24-.48h.53l.06.48h.19l-.21-1.53h-.22Zm-.28.9l.23-.44c.05-.09.08-.19.12-.28h0c0,.09.02.2.03.28l.06.44h-.44Zm2.25-.49c-.15,0-.3.09-.39.23h0l.03-.21h-.17c-.01.11-.04.26-.06.39l-.22,1.15h.19l.09-.47h0s.12.05.24.05c.37,0,.64-.36.64-.75,0-.2-.1-.4-.34-.4Zm-.3,1c-.09,0-.16-.02-.21-.06l.06-.31c.06-.31.24-.48.39-.48.16,0,.21.14.21.25,0,.29-.2.59-.44.59Zm1.4-1c-.15,0-.26.11-.34.26h0c.01-.09.02-.16.03-.24h-.17c-.01.1-.03.25-.05.39l-.13.71h.19l.09-.48c.05-.25.19-.45.35-.45.02,0,.04,0,.05,0l.04-.19s-.04,0-.05,0Zm.63,0c-.36,0-.61.33-.61.7,0,.25.15.45.43.45h0c.37,0,.61-.35.61-.69,0-.23-.13-.46-.43-.46Zm-.16,1h0c-.16,0-.26-.13-.26-.31,0-.25.16-.54.39-.54.2,0,.26.18.26.31,0,.26-.17.54-.39.54Zm1.09-.82h.26l.03-.15h-.26l.05-.26-.2.06-.04.2h-.16l-.03.15h.16l-.11.56c-.02.08-.03.14-.03.21,0,.11.07.21.23.21.05,0,.11,0,.15-.02v-.15s-.05,0-.08,0c-.07,0-.1-.04-.1-.11,0-.06,0-.11.02-.17l.1-.53Zm.87-.17c-.35,0-.6.37-.6.7,0,.24.13.44.42.44.15,0,.28-.04.36-.09l-.03-.14c-.07.04-.17.07-.29.07-.11,0-.2-.05-.24-.15-.03-.06-.03-.16-.02-.21.41,0,.73-.07.73-.36,0-.16-.11-.28-.32-.28Zm.14.29c0,.17-.23.21-.53.21.05-.17.18-.35.36-.35.1,0,.17.05.17.14h0Zm.25.43c0,.21.11.41.38.42l-.12.16c.1,0,.15.04.15.09s-.05.08-.1.08c-.04,0-.08-.01-.12-.03l-.04.1s.09.04.15.04c.12,0,.24-.07.24-.19,0-.07-.05-.13-.12-.15l.07-.1c.1,0,.19-.04.24-.07l-.02-.15c-.05.03-.14.06-.25.06-.18,0-.27-.12-.27-.29,0-.26.18-.54.46-.54.08,0,.14.02.19.04l.05-.15s-.12-.05-.23-.05c-.4,0-.67.35-.67.72Zm.92.06c0,.21.12.36.31.36.15,0,.31-.08.43-.31h0c-.01.11-.03.22-.03.28h.17c0-.12,0-.32.05-.51l.11-.57c-.07-.02-.19-.04-.29-.04-.48,0-.76.4-.76.78Zm.78-.29c-.05.29-.24.5-.4.5-.14,0-.19-.12-.19-.24,0-.31.23-.6.52-.6.06,0,.1,0,.13.02l-.06.33Zm-.2-.75s.06.02.1.04c.04.02.08.05.14.05.1,0,.15-.08.16-.22h-.1c0,.08-.03.1-.06.1-.03,0-.06-.02-.09-.04-.05-.03-.08-.05-.14-.05-.1,0-.15.1-.16.22h.11c0-.06.02-.1.06-.1Zm1.18.25c-.36,0-.61.33-.61.7,0,.25.15.45.43.45h0c.37,0,.61-.35.61-.69,0-.23-.13-.46-.43-.46Zm-.16,1h0c-.16,0-.26-.13-.26-.31,0-.25.16-.54.39-.54.2,0,.26.18.26.31,0,.26-.17.54-.39.54Zm2.02-.84c.08,0,.14.02.19.04l.05-.15s-.13-.05-.23-.05c-.39,0-.67.35-.67.72,0,.23.14.42.42.42.15,0,.26-.04.32-.07l-.02-.15c-.06.03-.14.06-.25.06-.18,0-.27-.12-.27-.29,0-.26.18-.54.46-.54Zm.84-.16c-.35,0-.6.37-.6.7,0,.24.13.44.42.44.15,0,.28-.04.36-.09l-.03-.14c-.07.04-.17.07-.29.07-.11,0-.2-.05-.24-.15-.02-.06-.03-.16-.02-.21.41,0,.73-.07.73-.36,0-.16-.11-.28-.32-.28Zm.14.29c0,.17-.23.21-.53.21.05-.17.18-.35.36-.35.1,0,.17.05.17.14h0Zm.57-.02h0c.01-.09.02-.16.03-.24h-.17c-.01.1-.03.25-.05.39l-.13.71h.19l.09-.48c.05-.25.19-.45.35-.45.02,0,.04,0,.05,0l.04-.19s-.04,0-.05,0c-.15,0-.26.11-.34.26Zm.8-.09h.26l.03-.15h-.26l.05-.26-.2.06-.04.2h-.16l-.03.15h.16l-.11.56c-.02.08-.03.14-.03.21,0,.11.07.21.23.21.05,0,.11,0,.15-.02v-.15s-.05,0-.08,0c-.07,0-.1-.04-.1-.11,0-.06,0-.11.02-.17l.1-.53Zm.28.61c0,.21.12.36.31.36.15,0,.31-.08.43-.31h0c-.01.11-.02.22-.02.28h.17c0-.12,0-.32.05-.51l.11-.57c-.07-.02-.19-.04-.29-.04-.48,0-.76.4-.76.78Zm.78-.29c-.05.29-.24.5-.4.5-.14,0-.19-.12-.19-.24,0-.31.23-.6.52-.6.06,0,.1,0,.13.02l-.06.33Zm1.75-.5c-.15,0-.3.09-.39.23h0l.03-.21h-.17c-.01.11-.04.26-.06.39l-.22,1.15h.19l.09-.47h0s.12.05.24.05c.36,0,.64-.36.64-.75,0-.2-.1-.4-.34-.4Zm-.3,1c-.09,0-.16-.02-.21-.06l.06-.31c.06-.31.24-.48.39-.48.16,0,.21.14.21.25,0,.29-.2.59-.44.59Zm.75-.22c0,.21.12.36.32.36.15,0,.31-.08.43-.31h0c-.01.11-.02.22-.02.28h.17c0-.12,0-.32.05-.51l.11-.57c-.07-.02-.19-.04-.29-.04-.48,0-.76.4-.76.78Zm.78-.29c-.05.29-.24.5-.4.5-.14,0-.19-.12-.19-.24,0-.31.23-.6.52-.6.06,0,.1,0,.13.02l-.06.33Zm1.08-.49s-.04,0-.05,0c-.15,0-.26.11-.34.26h0c.01-.09.02-.16.03-.24h-.17c-.01.1-.03.25-.05.39l-.13.71h.19l.09-.48c.05-.25.19-.45.35-.45.02,0,.04,0,.05,0l.04-.19Zm-.06.78c0,.21.12.36.32.36.15,0,.31-.08.43-.31h0c-.01.11-.02.22-.02.28h.17c0-.12,0-.32.05-.51l.11-.57c-.07-.02-.19-.04-.29-.04-.48,0-.76.4-.76.78Zm.78-.29c-.05.29-.24.5-.4.5-.14,0-.19-.12-.19-.24,0-.31.23-.6.52-.6.06,0,.1,0,.13.02l-.06.33Zm1.03.29c0,.21.12.36.31.36.15,0,.31-.08.43-.31h0c-.01.11-.02.22-.02.28h.17c0-.12,0-.32.05-.51l.11-.57c-.08-.02-.19-.04-.29-.04-.48,0-.76.4-.76.78Zm.78-.29c-.05.29-.24.5-.4.5-.14,0-.19-.12-.19-.24,0-.31.23-.6.52-.6.06,0,.1,0,.13.02l-.06.33Zm1.13-.16c0,.11.07.21.2.28.12.06.15.12.15.2,0,.1-.08.18-.21.18-.09,0-.19-.04-.24-.07l-.05.14s.15.07.27.07c.23,0,.42-.13.42-.36,0-.12-.08-.22-.2-.29-.1-.05-.15-.1-.15-.18,0-.09.08-.17.2-.17.08,0,.15.03.19.05l.05-.14s-.13-.05-.23-.05c-.23,0-.4.15-.4.34Zm1.48.25c-.05.24-.22.4-.36.4-.13,0-.17-.08-.17-.19,0-.05,0-.1.02-.16l.12-.61h-.19l-.12.62c-.01.07-.02.13-.02.19,0,.25.15.32.29.32s.29-.09.39-.23h0l-.03.21h.17c0-.09.03-.2.05-.32l.15-.78h-.19l-.11.56Zm.39.2c0,.21.12.36.31.36.15,0,.31-.08.43-.31h0c-.01.11-.02.22-.02.28h.17c0-.12,0-.32.05-.51l.11-.57c-.07-.02-.19-.04-.29-.04-.48,0-.76.4-.76.78Zm.78-.29c-.05.29-.24.5-.4.5-.14,0-.19-.12-.19-.24,0-.31.23-.6.52-.6.06,0,.1,0,.13.02l-.06.33Zm1.69-.47h-.25v-.05c.04-.18.11-.33.26-.33.04,0,.08,0,.11.02l.04-.15s-.08-.03-.15-.03c-.1,0-.19.03-.26.1-.1.09-.15.23-.18.38v.06h-.16l-.03.15h.15l-.18.95h.19l.18-.95h.24l.03-.15Zm-.05.76c0,.21.12.36.31.36.15,0,.31-.08.43-.31h0c-.01.11-.02.22-.02.28h.17c0-.12,0-.32.05-.51l.11-.57c-.07-.02-.19-.04-.29-.04-.48,0-.76.4-.76.78Zm.78-.29c-.05.29-.24.5-.4.5-.14,0-.19-.12-.19-.24,0-.31.23-.6.52-.6.06,0,.1,0,.13.02l-.06.33Zm1.74-.5c-.16,0-.3.09-.4.24,0-.14-.09-.24-.26-.24-.15,0-.28.08-.39.23h0l.03-.21h-.17c-.01.09-.03.2-.05.32l-.15.78h.18l.1-.55c.04-.23.21-.41.35-.41s.16.1.16.19c0,.04,0,.08-.01.13l-.12.64h.18l.1-.56c.05-.24.21-.4.34-.4.12,0,.17.07.17.19,0,.05,0,.1-.02.14l-.12.63h.18l.12-.65c.01-.06.02-.14.02-.19,0-.21-.14-.29-.27-.29Zm1.08-.43h-.22l-.22.32h.15l.3-.32Zm-.67,1.55h.19l.21-1.1h-.19l-.21,1.1Zm.79-1.61l-.31,1.61h.19l.31-1.61h-.19Zm.18,1.61h.19l.21-1.1h-.19l-.21,1.1Zm.37-1.55c-.07,0-.13.06-.13.13,0,.07.05.12.11.12h0c.07,0,.13-.05.13-.13,0-.07-.05-.12-.12-.12Zm.12,1.22c0,.21.12.36.31.36.15,0,.31-.08.43-.31h0c-.01.11-.02.22-.02.28h.17c0-.12,0-.32.05-.51l.11-.57c-.07-.02-.19-.04-.29-.04-.48,0-.76.4-.76.78Zm.78-.29c-.05.29-.24.5-.4.5-.14,0-.19-.12-.19-.24,0-.31.23-.6.52-.6.06,0,.1,0,.13.02l-.06.33Zm.49.36c-.08,0-.14.07-.14.15,0,.07.05.13.12.13h0c.08,0,.14-.07.14-.15,0-.08-.05-.14-.13-.14Z"/>
  </g>
</svg>