<svg width="68" height="16" fill="none" xmlns="http://www.w3.org/2000/svg"><g clip-path="url(#clip0_406_257)" fill="#fff"><path d="M66.9 3.902c-.02.196-.05.391-.09.584-.047.19-.48 1.264-.513 1.441-.032.178-.006.213-.026.521-.132.058-.434.283-.595.283-.16 0-.543-.366-.71-.41 0-.453.112-.49.076-.726a3.893 3.893 0 00-.282-.78c-.089-.223-.022-.3-.034-.366a.439.439 0 00-.07.334c.04.251.241.628.269.793.028.165.02.356-.042.397a3.26 3.26 0 01-1.279-.416 9.175 9.175 0 00-.938-.47c.057-.207.5-.871.717-1.125.236-.286.517-.53.832-.725.345-.203.953-.318 1.397-.275.294.03.585.083.87.16 0 0 .278-.232.492-.16-.062.162-.13.327-.13.327l.277.167a3.946 3.946 0 00-.223.446M54.462 8.034a1.5 1.5 0 00.346.939l.008.006a5.935 5.935 0 01-.171-.68v-.457c0-.223.212-.75.285-.929a1.519 1.519 0 00-.304.406l-.017.034c-.081.17-.129.353-.141.541v.138m7.568-2.426a.151.151 0 00.057-.055c.04-.062.078-.125.11-.191 0-.12-.252-.112-.305-.15-.054-.04-.078-.105-.162-.143v.013a.598.598 0 000 .08 1.258 1.258 0 01-.013.54 1.2 1.2 0 01.137.061.704.704 0 01.186-.155m-.044-.923l-.982-1.104-.637.532.025.078c.021.055.047.108.075.16.034.055.07.108.112.159.043.057.091.112.142.163.008.008.017.013.023.021.14.13.303.233.481.3.105.039.216.06.327.063l.439-.37-.005-.002zm-.477-1.828v-.29a.111.111 0 00-.03-.094.499.499 0 01-.135-.097.32.32 0 01-.201-.024.291.291 0 01-.097-.053.163.163 0 01-.058-.118c-.032 0-.064 0-.094-.008v.19a.456.456 0 01.021.135.438.438 0 01-.083.256.461.461 0 01-.367.194.642.642 0 000 .166c.007.05.06.187.08.26.047.134.073.274.08.415l.145-.123a19.314 19.314 0 01-.099-.358c-.022-.083-.046-.163-.066-.243a.592.592 0 00.393-.274c.083.028.167.05.253.066h.258zm.366-.374c.04-.04.03-.135-.044-.298a.634.634 0 00-.092-.097c-.058.028-.08.03-.1.04a.597.597 0 01-.052.074c-.013.015-.047.01-.059.021a.263.263 0 01-.097.12.603.603 0 00.193.12c.047.02.211.057.251.02zm.188-.67c.172-.098.32-.233.434-.395a.493.493 0 01-.092-.04.926.926 0 01-.295-.28 1.643 1.643 0 01-.47.647c.01.02.019.04.025.062v.02a.46.46 0 010 .166c.14-.039.274-.097.398-.171m.489-.49a.025.025 0 00.007-.02.423.423 0 00-.14-.234.952.952 0 00-.134-.112.167.167 0 00-.118-.036h-.007c-.007 0 0 .007 0 .01a.06.06 0 000 .04.587.587 0 00.146.206c.111.104.222.167.257.14m-1.034.435l-.248.02s-.121.085-.137.159a1.197 1.197 0 000 .154l.388.007a.327.327 0 000-.334m-.275.53c.204.016.193-.102.193-.102l-.352-.005s-.044.095.16.111m-.51-.416a.422.422 0 00-.111-.084c-.044.04-.103.096-.158.139a.26.26 0 01-.065.044.299.299 0 01-.09-.178.091.091 0 01.051-.09.986.986 0 00.122-.056.16.16 0 01.04-.08.571.571 0 00-.069-.12s-.054-.034-.11-.063a.998.998 0 01-.119-.073c0 .067.007.112 0 .156v.258h-.091a.382.382 0 000-.052v-.175a8.774 8.774 0 00-.027-.334.231.231 0 00-.038-.009l-.069-.01h-.064c0 .012.035.245.044.288 0 .022.044.266.044.28v.01h-.086a3.873 3.873 0 00-.137-.577.921.921 0 00-.24.063h-.007a.737.737 0 00-.147.087l-.022.016c-.031.033-.06.067-.088.103-.041.057-.076.111-.099.144-.023.032-.016.05-.032.082-.017.033-.01.034-.015.052-.004.017-.005.036-.008.056l.015.006a1.084 1.084 0 00.306.043h.02a.81.81 0 00.105-.005v.006a.706.706 0 00.446.473l.035.012a.453.453 0 000 .054.65.65 0 010 .082l.072.007v-.072a.138.138 0 010-.03v-.355h.088v.077l.02.022c.032.035.065.074.096.112l.028.032.007.007.01.013c.023.028.047.056.068.085a.42.42 0 00.131-.118l.024-.033a.391.391 0 00.024-.048c0-.013.011-.023.015-.035a.625.625 0 01.065-.132.173.173 0 01.041-.036.16.16 0 00-.035-.058m-1.206 3.118l-.052-.055-.033-.037v-.009l-.324.27 1.002 1.116.038-.032.59-.499a2.456 2.456 0 01-.557-.234 2.892 2.892 0 01-.578-.437l-.011-.013a.653.653 0 01-.039-.04.26.26 0 01-.03-.03m-.709.406l.295.238.723.586.055-.065-.738-.83-.021-.022s-.006 0 0-.006l-.08-.09-.223.186-.01.003zm-.028.398h.01l.65.25.05.018-.595-.475-.028-.021-.087.228zM54.3 10.157c-.026-.112-.051-.223-.078-.316l-.2-.698-.282-.98a1.464 1.464 0 01.053-.949 1.442 1.442 0 011.535-.877 1.32 1.32 0 00.138-.022.443.443 0 00.066-.02l.049-.017.093-.04c.054-.024.112-.047.163-.07.258-.116.531-.196.811-.238a3.205 3.205 0 011.647.186c.073.026.147.046.223.061.124 0 .136-.132.29-.132a.872.872 0 01.21.076l-.023.032a5.378 5.378 0 00-.635 1.523c-.007.024-.012.051-.02.078 0 0 2.054.828 2.06.833l.373-.902s.377.263.574.38c-.01.157-.01.315 0 .473.035.614.145 1.524.178 1.806.03.036.051.07.1.07.047 0 .579-.056.725-.253l-.09-1.349-.065-.989-.703-1.68-.112-.26-.207.498-.851 2.044-1.828-.731v-.016c0-.005 0 0 0 0v-.022c.138-.553.363-1.08.668-1.561l.015-.038c0-.04 0-.033-.01-.043l-.48-.181.126-.324-.122-.097.034-.028.119-.099.197-.156.223-.188.099-.084.036-.03-.044-.061s-.072-.099-.111-.149a2.475 2.475 0 01-.315-.669 2.025 2.025 0 01-.074-.47v-.022a.617.617 0 01.158-.4l.012-.012a.616.616 0 01.202-.147.506.506 0 01.102-.046c0-.028 0-.058.006-.095l.06.01a.925.925 0 01.161.04.04.04 0 01.013 0c-.017-.111-.142-.126-.183-.185a.063.063 0 01-.016-.041c0-.013.004-.027.012-.038a.118.118 0 00.027-.066.07.07 0 00-.007-.032.051.051 0 00-.022-.025.118.118 0 00-.022-.012l-.028-.021-.034-.033a.79.79 0 01-.2-.39c0-.01 0-.022-.005-.034a.29.29 0 010-.046.804.804 0 010-.147c0-.015 0-.03.008-.045a.723.723 0 01.243-.41 1.09 1.09 0 01.11-.08h.009a.706.706 0 01.143-.068l.026-.01h.017a.97.97 0 01.27-.045h.293l.02.029.007.011c.024.041.043.08.056.104v.008c.006.01.014.02.022.028.074.068.195.087.223.147l.131.267s.223.248.223.26c0 .045 0 .067.029.1.044-.012.087-.026.13-.043a1.2 1.2 0 01.011-.103c0-.008.157-.208.237-.202.02 0 .29-.023.292-.023.24-.19.407-.457.47-.757V.883a.085.085 0 01.02-.032.125.125 0 01.112-.02c.041.01.08.025.118.045a.874.874 0 01.32.312.24.24 0 01.043.207l-.007.009a1.56 1.56 0 01-.816.64.22.22 0 00-.028.014.55.55 0 01.144.234h.357v1.073c0 .016 0 .031-.008.047-.008.015 0 .019-.006.029a.488.488 0 01-.056.128l-.017.026a.497.497 0 01-.33.196c-.022 0-.047 0-.071.008h-.498l.806.906s-.24.198-.322.276a.892.892 0 00.124.148c.055.032.396.061.37.223a.343.343 0 01-.013.056c-.04.079-.087.154-.142.223-.056.072-.172.079-.21.198.058.04.102.097.126.163.195-.227.368-.473.515-.734.414.105 1.41.662 1.67.743.186.051.376.089.567.112a.773.773 0 00-.052.191c0 .025.081.048.171.103a.59.59 0 01.133.111 1.53 1.53 0 00.096.67c.031.072.057.146.079.222l.02.074c.012.057.024.112.033.175.011.077.019.154.023.232v.148a2.674 2.674 0 01-.03.341c0 .02-.007.04-.013.063-.006.022-.011.06-.019.087a1.878 1.878 0 01-.115.338l-.007.019v.009a.897.897 0 01-.21-.091.815.815 0 01-.213-.168.91.91 0 00.26.327c.02.013.04.03.06.043.015.008.03.015.047.02 0 0 .273.086.327.097.294.047.583.112.868.197.047.015.134-.093.392-.07.258.022.455.274.445.445-.01.172-.078.214-.102.314a53.82 53.82 0 00-.246 1.408 4.406 4.406 0 00-.018.297c0 .002.048.223.052.29v.039a.534.534 0 01-.007.093.48.48 0 01-.188.328.148.148 0 00-.007.02c-.015.053-.034.105-.051.159a2 2 0 01-.446.712v-.009l-.395-.757v-.008a1.73 1.73 0 01.32-.427l.052-.051.124-.112v-.034a.534.534 0 01.213-.43c0-.03.06-1.17.013-1.592a1.159 1.159 0 01-.446-.167c-.039-.028-1.293.092-1.335.095-.042.002-.143-.047-.216-.046-.073.001-.19.018-.235.018a.39.39 0 01-.23-.076.363.363 0 01-.142-.21.212.212 0 01-.01-.059v-.043a.245.245 0 010-.04l.006-.042a.385.385 0 01.041-.096 1.308 1.308 0 01-.718-.545 1.229 1.229 0 01-.081-.15c.078.319.278.595.556.769 0 .027-.006.054-.008.081a.56.56 0 00.014.15.635.635 0 00.462.473c-.1.37-.32 1.003-.32 1.049 0 .138-.348.822-.348.828 0 .29-.084.575-.12.82a1.19 1.19 0 00-.016.178c0 .048-.025.335-.042.811 0 .04-.016.047-.016.094.002.04.016.079.04.111v.008l.05.066a2.14 2.14 0 01.196.314l.054.117a2.105 2.105 0 01.163.583h-.927c.01-.054.017-.108.02-.163a1.245 1.245 0 00-.14-.61.928.928 0 00-.149-.264 2.41 2.41 0 01.074-.401c.055-.155.127-.305.212-.446 0 0 .06-1.115.06-1.166 0-.052-.081-.446-.112-.657a2.19 2.19 0 00-.181-.625c-.022-.04.1-.155.136-.223l-.023-.022h-.016c-.049.043-.943.312-.943.312a2.08 2.08 0 00-.276-.304 10.961 10.961 0 01-1.175-.15 10.242 10.242 0 01-1.645-.425 6.995 6.995 0 01-.264-.102.032.032 0 00-.01.015v.046c0 .062-.004.123-.013.184a2.085 2.085 0 01-.184.67 1.375 1.375 0 01-.156.257.202.202 0 01-.011.022c.041.083.071.17.09.261.012.058.021.116.027.174.004.072.004.145 0 .216.382.463.732.951 1.047 1.462l.007.012a.462.462 0 01.222.414.607.607 0 01-.021.153.48.48 0 01-.076.155 1.79 1.79 0 01.055.518v.01a1.734 1.734 0 01-.104.52.84.84 0 01-.049.094l-.706-.577-.017-.013a2.039 2.039 0 01.261-.492.526.526 0 01-.15-.31.541.541 0 010-.062v-.057a.662.662 0 01.112-.347c-.11-.183-.23-.36-.359-.532a3.695 3.695 0 00-.408-.436 1.32 1.32 0 00-.316-.111c.016 0-.01 0 0 0-.053-.006-.223-.032-.223-.032l-.25-.044h-.015l.061-.195v-.012a.84.84 0 00-.035-.373c-.007-.017-.015-.031-.021-.047a.375.375 0 00-.043-.068c-.088-.111-.288-.373-.322-.413l.02-.024.01-.01a2.768 2.768 0 00.553-1.21 2.37 2.37 0 00.032-.201c.042-.028.083-.058.121-.09.112-.089.21-.191.293-.306a1.434 1.434 0 00.161-.274l-.028.045a1.63 1.63 0 01-.511.467l-.005.015a1.367 1.367 0 01-.176.086 3.127 3.127 0 01-.165.612c-.04.109-.089.215-.145.317a2.515 2.515 0 01-.214.334c-.02.026-.038.051-.058.074-.156.192-.34.36-.547.497a2.118 2.118 0 01-.352.185c-.036.014-.07.03-.105.041-.026.112-.179.275-.287.37a.868.868 0 00-.177.16c-.085.139-.15.289-.192.446-.07.26-.127.523-.168.788 0 .045-.02.236-.02.281 0 .046.136.499.136.548a.018.018 0 000 .013c.206.155.367.362.467.6.06.135.1.277.12.424h-.788a1.895 1.895 0 00-.513-1.034.156.156 0 01-.02-.075 1.804 1.804 0 01.123-.487.465.465 0 00.05-.148c0-.047.08-.978.074-1.013-.013-.017-.16-.49-.305-.68.046-.06.096-.115.15-.166a.711.711 0 00.252-.365c.008-.04.042-.044.042-.092a.08.08 0 00-.009-.044 1.034 1.034 0 01-.617.203.95.95 0 00.32-.972M.76 14.914V3.574h5.787V5.49H2.875v2.607h2.801v1.917H2.871v2.984h3.826v1.916H.76zm11.399-8.182c-.174-.534-.383-.921-.627-1.162a1.258 1.258 0 00-.918-.361c-.377 0-.668.111-.865.334-.197.223-.298.523-.298.91a.983.983 0 00.352.746c.267.239.56.447.872.621.347.199.724.41 1.132.636.405.223.785.488 1.133.793.35.309.645.675.872 1.083.245.464.366.983.351 1.508.007.457-.074.911-.237 1.338-.15.387-.386.736-.688 1.02-.32.295-.7.517-1.113.653a4.53 4.53 0 01-1.484.223 3.48 3.48 0 01-2.238-.756c-.627-.504-1.083-1.315-1.37-2.435l2.08-.456c.049.302.139.596.269.872.101.213.238.407.405.574a1.392 1.392 0 00.965.408c.343.009.675-.118.925-.354s.376-.568.375-.997c.006-.34-.12-.67-.352-.919a4.262 4.262 0 00-.872-.714 14.848 14.848 0 00-1.132-.652 7.065 7.065 0 01-1.126-.738 3.973 3.973 0 01-.873-.966 2.45 2.45 0 01-.352-1.35c0-.984.278-1.759.834-2.325.556-.565 1.384-.848 2.486-.848a3.73 3.73 0 011.27.204c.364.129.701.323.995.573.286.247.526.542.711.872.193.344.335.715.42 1.1l-1.902.565zm9.35-3.157V5.49h-2.465v9.424H16.93V5.49h-2.462V3.575h7.04zM20.13 14.914l2.74-11.34h2.708l2.663 11.34h-2.02l-.536-2.388h-2.922l-.597 2.388h-2.035zm3.019-4.303h2.092l-1.025-4.59h-.03l-1.037 4.59zm5.536-7.036h2.937a5.569 5.569 0 011.607.216 2.9 2.9 0 011.193.683c.343.34.602.755.758 1.213.193.585.293 1.197.298 1.814v3.487a5.947 5.947 0 01-.298 1.814 3.13 3.13 0 01-.758 1.216c-.337.32-.746.555-1.193.684a5.569 5.569 0 01-1.607.212h-2.937V3.574zm2.114 9.423h.735c.58 0 1.032-.165 1.353-.495.321-.33.482-.92.483-1.767V7.752c0-.805-.14-1.384-.422-1.735-.28-.352-.752-.527-1.414-.527h-.735v7.508zm4.648 1.916l2.739-11.34h2.709l2.662 11.34h-2.02l-.535-2.387h-2.923l-.597 2.387h-2.035zM42.302.826a5.086 5.086 0 01-.199.715 2.482 2.482 0 01-.314.604c-.126.177-.29.322-.482.425a1.46 1.46 0 01-.703.156c-.205 0-.408-.028-.605-.086a8.934 8.934 0 01-.573-.188c-.184-.068-.366-.13-.544-.189a1.708 1.708 0 00-.527-.086.574.574 0 00-.46.196 1.058 1.058 0 00-.229.464h-.964c.04-.246.104-.486.192-.718.08-.222.197-.428.344-.613.139-.175.313-.32.511-.423a1.51 1.51 0 01.713-.158c.204 0 .407.03.602.09.2.063.39.128.573.196.184.068.357.134.52.196.137.058.282.09.43.095a.628.628 0 00.466-.196.967.967 0 00.252-.48h.998zm-3.84 9.785h2.095l-1.025-4.59h-.03l-1.04 4.59zm5.125-3.392a5.274 5.274 0 01.262-1.775c.148-.44.394-.84.72-1.17.31-.302.688-.525 1.101-.652a4.96 4.96 0 012.816 0c.414.127.791.35 1.102.652.325.33.57.73.716 1.17.188.572.276 1.172.26 1.775v4.05a5.272 5.272 0 01-.26 1.777c-.147.44-.393.84-.718 1.17a2.747 2.747 0 01-1.102.652 4.958 4.958 0 01-2.816 0 2.737 2.737 0 01-1.102-.652c-.325-.33-.57-.73-.717-1.17a5.268 5.268 0 01-.26-1.775l-.002-4.052zm2.114 4.334c0 .627.123 1.051.368 1.272.244.221.581.333 1.01.335.427 0 .764-.112 1.008-.335.245-.223.368-.647.368-1.272V6.935c0-.628-.123-1.052-.367-1.272-.245-.22-.582-.331-1.01-.334-.429 0-.765.111-1.01.334-.243.223-.366.647-.367 1.272v4.618z"/></g><defs><clipPath id="clip0_406_257"><path fill="#fff" d="M0 0h67.862v16H0z"/></clipPath></defs></svg>