<?xml version="1.0" encoding="UTF-8"?>
<svg id="Camada_1" data-name="Camada 1" xmlns="http://www.w3.org/2000/svg" viewBox="0 0 202.42 53.64">
  <defs>
    <style>
      .cls-1 {
        fill: #ea0028;
      }

      .cls-1, .cls-2, .cls-3 {
        stroke-width: 0px;
      }

      .cls-2 {
        fill: #004690;
      }

      .cls-3 {
        fill: #fcfcfc;
      }
    </style>
  </defs>
  <path class="cls-2" d="m173.21,45.03c-.37,0-.73-.02-1.1-.03-.18-.09-.38,0-.56-.08-.2-.12-.43-.03-.65-.08-.67-.15-1.02-.6-1.26-1.18-.55-1.31-1.09-2.62-1.64-3.93-.46-1.07-.98-2.12-1.41-3.2-.5-1.26-1.03-2.5-1.57-3.74-.48-1.1-.98-2.2-1.44-3.3-.53-1.26-1.04-2.53-1.57-3.78-.46-1.1-.99-2.17-1.26-3.34-.02-.08-.04-.27-.2-.26-.19,0-.12.18-.13.28,0,.12,0,.24,0,.36v29.29c0,.89-.27,1.21-1.14,1.35-.31.05-.61.09-.92.14-.35.1-.72-.03-1.08.08h-6.35c-.32-.11-.65.02-.97-.08-.47-.09-.95-.06-1.4-.31-.24-.14-.36-.28-.38-.54-.06-.19-.03-.38-.03-.57V1.51c0-.19-.04-.38.04-.56.19-.54.68-.6,1.13-.7.31-.07.64-.1.96-.14.28-.09.59.03.87-.08h7.7c.32.11.65-.02.97.08.72.14,1.46.16,2.16.42.5.19.85.49,1.06.97,1.28,3.01,2.56,6.02,3.83,9.03,1.26,2.99,2.52,5.99,3.78,8.98,1.77,4.24,3.55,8.48,4.89,12.88.05.15-.03.37.23.48.26-.73.52-1.45.77-2.18.84-2.38,1.77-4.73,2.72-7.07.66-1.63,1.29-3.27,1.97-4.9.72-1.74,1.48-3.45,2.2-5.19.56-1.34,1.07-2.69,1.63-4.03.54-1.3,1.12-2.59,1.67-3.89.48-1.14.95-2.28,1.42-3.42.17-.42.31-.85.53-1.24.3-.57.92-.57,1.45-.7.33-.08.68-.1,1.02-.15.28-.09.59.03.87-.07h7.08c.32.11.65-.02.97.08.56.13,1.16.12,1.7.35.44.18.69.49.65.99v50.51c0,1.05-.25,1.34-1.28,1.46-.29.04-.58.08-.87.12-.39.1-.79-.04-1.17.08h-6.14c-.29-.1-.59.01-.88-.08-.36-.07-.73-.03-1.09-.14-.38-.12-.73-.25-.8-.71-.06-.2-.03-.41-.03-.62v-29.36c0-.2.05-.41-.05-.61-.2-.03-.26.08-.32.25-.75,2.52-1.84,4.9-2.81,7.33-1.85,4.63-3.74,9.24-5.59,13.86-.34.84-.84,1.34-1.76,1.38-.17.08-.37-.02-.55.08l-1.01.03c-1.62.05-3.25.05-4.87,0h.01Z"/>
  <path class="cls-2" d="m79.43,11.55c-.51-.06-.96-.68-.92-1.33.02-.29-.02-.58-.04-.87-.07-1.53-.02-3.05-.03-4.58,0-.96-.05-1.92.03-2.88.11-.39,0-.8.13-1.21.13-.44.38-.6.77-.64.19-.02.38-.01.57-.01h36.38c.65.02.95.27,1.06.89.06.32.09.65.13.97.07.99.03,1.99.03,2.98,0,1.49.04,2.98-.03,4.48-.08.47-.13.95-.24,1.41-.1.43-.35.74-.82.79-.19.06-.38.03-.57.03h-11.2c-.19,0-.38-.05-.56.05,0,.21-.02.41-.02.62,0,13.15,0,26.31.01,39.46,0,1.36-.23,1.53-1.73,1.77-.12.02-.24.03-.36.04-.35.1-.72-.03-1.08.08h-6.35c-.32-.11-.65.02-.97-.08-.33-.08-.67-.03-1-.13-.46-.14-.79-.37-.76-.91V12.24c0-.21-.01-.41-.02-.62-.18-.1-.37-.05-.56-.05h-11.3c-.19,0-.38.03-.57-.03h.02Z"/>
  <path class="cls-1" d="m32.08,11.52H3.46C1.27,11.52.01,10.27.01,8.09V3.37C.01,1.33,1.31.04,3.35.04h57.45c1.61,0,2.81.84,3.21,2.29.1.36.13.74.14,1.12.01,1.55,0,3.11,0,4.66,0,1.28-.47,2.3-1.58,2.99-.54.34-1.15.42-1.77.42h-28.73.01Z"/>
  <path class="cls-2" d="m134.99,53.61h-6.45c-.28-.1-.58.01-.87-.07-.29-.11-.59-.01-.9-.11-.95-.32-.96-.29-.96-1.29V1.35c0-.67,0-.79.8-1,.45-.12.91-.16,1.37-.24.28-.09.58.03.87-.07h5.93c.28.1.59-.01.87.08.57.1,1.15.15,1.71.33.46.15.69.44.69.95v50.89c0,.53-.3.93-1.12,1.11-.32.07-.65.1-.97.14-.32.09-.66-.03-.97.07Z"/>
  <path class="cls-1" d="m13.95,32.54H2.75c-1.26,0-2.47-1.26-2.68-2.48C-.03,29.48.01,28.89,0,28.3v-3.94c0-1.98,1.31-3.28,3.29-3.28,7.29,0,14.59,0,21.88-.01.43,0,.5.14.5.53-.01,3.47-.02,6.95,0,10.42,0,.48-.15.56-.58.55-3.72-.02-7.43,0-11.15,0v-.02h.01Z"/>
  <path class="cls-1" d="m14.12,53.6H3.44c-2.18,0-3.44-1.26-3.44-3.44v-4.71c0-2.04,1.3-3.32,3.35-3.32,7.26,0,14.52,0,21.77-.01.47,0,.56.13.56.57-.02,3.47-.02,6.94,0,10.41,0,.42-.12.51-.52.51-3.68-.02-7.36,0-11.04,0h0Z"/>
  <path class="cls-1" d="m49.97,21.08h10.89c1.56,0,2.75.87,3.15,2.29.1.34.13.71.14,1.07.01,1.59.01,3.18,0,4.77,0,1.57-.86,2.83-2.17,3.21-.36.11-.74.15-1.12.15h-21.88c-.41,0-.52-.11-.51-.52.02-3.49.02-6.98,0-10.47,0-.41.1-.52.51-.52,3.66.02,7.33,0,10.99,0v.02Z"/>
  <path class="cls-1" d="m49.92,53.6h-10.94c-.41,0-.52-.1-.52-.51.02-3.47.02-6.94,0-10.41,0-.45.09-.57.56-.57,7.26.02,14.52.01,21.77.01,2,0,3.32,1.3,3.35,3.3.02,1.62,0,3.25,0,4.87,0,1.92-1.37,3.33-3.34,3.31-3.63-.03-7.26,0-10.89,0h0Z"/>
  <path class="cls-3" d="m148.19.96v51.73c-.15-.16-.09-.36-.09-.55V1.5c0-.18-.06-.38.09-.54Z"/>
  <path class="cls-3" d="m190.11,22.1c.16.11.08.29.08.43v30.16c-.14-.16-.08-.36-.08-.55v-30.04Z"/>
  <path class="cls-3" d="m79.43,11.55h12.12c.1,0,.25-.08.31.09h-11.83c-.2,0-.42.07-.6-.09Z"/>
  <path class="cls-3" d="m104.14,11.63c.04-.15.16-.09.25-.09h12.07c-.18.15-.4.08-.6.08h-11.73,0Z"/>
  <path class="cls-3" d="m78.48,1.89v7.46c-.11-.11-.08-.26-.08-.39V2.28c0-.14-.03-.28.09-.39h0Z"/>
  <path class="cls-3" d="m117.52,9.35V1.89c.11.11.08.26.08.39v6.68c0,.14.03.28-.08.39Z"/>
  <path class="cls-3" d="m173.21,45.03h4.87c-.08.08-.18.09-.29.09h-4.3c-.1,0-.21,0-.29-.09h0Z"/>
  <path class="cls-3" d="m100.97,53.61c.35-.09.72-.08,1.08-.08-.35.18-.72.05-1.08.08Z"/>
  <path class="cls-3" d="m157.29,53.61c.35-.09.72-.08,1.08-.08-.35.18-.72.05-1.08.08Z"/>
  <path class="cls-3" d="m159.82.11c-.33,0-.65.02-.97-.08.32.02.66-.09.97.08Z"/>
  <path class="cls-3" d="m93.65,53.53c.33,0,.65-.02.97.08-.32-.02-.66.1-.97-.08Z"/>
  <path class="cls-3" d="m134.99,53.61c.32-.09.65-.08.97-.07-.31.17-.65.06-.97.07Z"/>
  <path class="cls-3" d="m149.97,53.53c.33,0,.65-.02.97.08-.32-.02-.66.1-.97-.08Z"/>
  <path class="cls-3" d="m128.85.03c-.28.09-.57.08-.87.07.28-.17.58-.06.87-.07Z"/>
  <path class="cls-3" d="m135.65.11c-.29,0-.59.02-.87-.08.29.02.6-.1.87.08Z"/>
  <path class="cls-3" d="m151.15.03c-.28.09-.58.08-.87.08.28-.17.58-.06.87-.08Z"/>
  <path class="cls-3" d="m192.02.03c-.28.09-.58.08-.87.07.28-.17.58-.06.87-.07Z"/>
  <path class="cls-3" d="m127.67,53.54c.29,0,.58-.02.87.07-.29-.02-.59.09-.87-.07Z"/>
  <path class="cls-3" d="m192.09,53.54c.29,0,.59-.02.88.08-.29-.02-.6.1-.88-.08Z"/>
  <path class="cls-3" d="m171.55,44.93c.19-.01.38-.02.56.08-.19,0-.39.08-.56-.08Z"/>
  <path class="cls-3" d="m179.09,45.01c.17-.09.36-.09.55-.08-.16.15-.36.07-.55.08Z"/>
</svg>