<svg width="65" height="25" fill="none" xmlns="http://www.w3.org/2000/svg"><g clip-path="url(#clip0_127_8434)" fill="#fff"><path d="M.067 13.584V2.65h5.588v1.848H2.107v2.514h2.705v1.847H2.107v2.879h3.695v1.848l-5.735-.002zm11.013-7.89c-.167-.515-.37-.888-.607-1.12a1.216 1.216 0 00-.887-.349c-.364 0-.643.106-.835.318-.192.212-.288.504-.288.876 0 .272.113.513.34.72.258.229.54.43.842.597.334.193.699.397 1.094.614.391.216.758.474 1.094.77.339.297.624.65.843 1.045.227.403.34.888.34 1.453.006.44-.072.877-.23 1.288a2.68 2.68 0 01-.664.983 2.954 2.954 0 01-1.072.626 4.39 4.39 0 01-1.434.22c-.837 0-1.56-.242-2.165-.727-.607-.485-1.047-1.268-1.323-2.348l2.01-.438a3.1 3.1 0 00.259.839c.097.205.23.392.391.552a1.37 1.37 0 00.932.394c.331.009.653-.114.894-.341.24-.227.361-.547.362-.961a1.269 1.269 0 00-.34-.886 4.135 4.135 0 00-.842-.689c-.334-.211-.699-.42-1.094-.626a6.83 6.83 0 01-1.097-.712 3.841 3.841 0 01-.843-.932c-.226-.353-.34-.787-.34-1.303 0-.948.27-1.695.806-2.24.537-.546 1.339-.819 2.405-.819.417-.005.832.061 1.226.197a3.038 3.038 0 011.65 1.394c.186.332.323.689.407 1.06l-1.834.545zm9.031-3.044v1.848h-2.378v9.086h-2.04V4.498h-2.378V2.65h6.796zM18.78 13.584L21.427 2.65h2.617l2.572 10.934h-1.951l-.518-2.302h-2.823l-.578 2.302h-1.964zm2.912-4.15h2.026l-.99-4.422h-.03l-1.006 4.422zm5.352-6.784h2.837a5.394 5.394 0 011.553.204 2.8 2.8 0 011.153.66 3 3 0 01.731 1.173c.173.48.27 1.062.289 1.749v3.362c-.02.686-.116 1.27-.289 1.752a3 3 0 01-.731 1.173 2.8 2.8 0 01-1.153.66 5.395 5.395 0 01-1.553.2h-2.837V2.65zm2.04 9.086h.71c.56 0 .997-.16 1.307-.477.31-.318.466-.885.466-1.7v-2.88c0-.777-.136-1.334-.406-1.673-.271-.338-.727-.507-1.368-.507h-.71v7.237zm4.494 1.848L36.223 2.65h2.617l2.572 10.934H39.46l-.518-2.302h-2.824l-.576 2.302h-1.965zM40.2 0a4.96 4.96 0 01-.193.689 2.413 2.413 0 01-.3.583c-.122.17-.281.31-.466.41-.21.105-.444.157-.68.15-.197 0-.394-.027-.584-.083a8.352 8.352 0 01-.554-.182 15.017 15.017 0 00-.525-.181 1.65 1.65 0 00-.51-.083.554.554 0 00-.443.187 1.02 1.02 0 00-.222.447h-.934c.04-.238.102-.471.188-.696a2.1 2.1 0 01.332-.591 1.56 1.56 0 01.496-.409 1.46 1.46 0 01.688-.151c.198 0 .395.03.584.09.192.061.377.124.554.188.177.066.345.128.501.188.131.055.271.086.414.09a.607.607 0 00.45-.187.933.933 0 00.244-.462L40.2 0zm-3.71 9.434h2.027l-.993-4.422h-.03L36.49 9.434zm4.951-3.271c0-.676.084-1.246.25-1.71.143-.424.381-.81.696-1.127.3-.29.665-.504 1.064-.626a4.804 4.804 0 012.72 0c.398.122.763.336 1.063.626.314.317.552.703.695 1.126.167.465.25 1.035.25 1.711v3.908c0 .677-.083 1.247-.25 1.71a2.93 2.93 0 01-.695 1.127c-.3.29-.665.505-1.064.626a4.79 4.79 0 01-2.72 0 2.64 2.64 0 01-1.063-.626 2.934 2.934 0 01-.696-1.126c-.166-.465-.25-1.035-.25-1.711V6.163zm2.04 4.18c0 .606.118 1.015.354 1.227.237.211.562.317.976.317.414 0 .74-.106.976-.317.236-.212.354-.621.355-1.227V5.891c0-.606-.119-1.015-.355-1.227-.237-.212-.562-.318-.976-.318-.414 0-.739.106-.976.318-.236.212-.354.621-.354 1.227v4.452zM3.035 15.88c.345-.003.69.035 1.026.113.295.065.572.193.813.375.234.186.416.429.528.705.126.292.188.653.188 1.082 0 .486-.113.903-.34 1.252-.226.348-.567.585-1.023.711v.026c.504.067.903.28 1.196.641.293.36.44.843.438 1.447.003.34-.043.68-.135 1.007a2.06 2.06 0 01-.473.839 2.36 2.36 0 01-.868.572c-.357.142-.8.214-1.327.214H0v-8.985h3.035zm-.707 3.685c.503 0 .87-.09 1.1-.271.231-.18.347-.484.347-.911 0-.428-.105-.73-.313-.906-.209-.176-.54-.265-.994-.265h-.656v2.354l.516-.001zm.188 3.963c.436 0 .788-.096 1.057-.289.268-.193.402-.55.4-1.07a1.714 1.714 0 00-.106-.648 1.084 1.084 0 00-.29-.415 1.036 1.036 0 00-.432-.22 2.28 2.28 0 00-.553-.063h-.78v2.706h.704zm4.48-7.648H8.81v7.497h3.208v1.485H6.996v-8.983zm7.524 6.264a4.1 4.1 0 00.043.626c.024.172.08.338.164.49a.87.87 0 00.327.327c.16.085.34.126.523.12.183.008.366-.034.528-.12a.888.888 0 00.322-.33 1.39 1.39 0 00.163-.49c.031-.207.046-.416.045-.626V15.88h1.811v6.265c0 .57-.08 1.042-.239 1.415a2.267 2.267 0 01-.641.888 2.182 2.182 0 01-.919.438c-.351.076-.71.114-1.07.113a5.532 5.532 0 01-1.069-.1 2.166 2.166 0 01-.918-.41 2.091 2.091 0 01-.642-.875c-.16-.376-.239-.867-.239-1.473v-6.26h1.815l-.004 6.264zm10.09-4.781h-3.208v2.114h3.02v1.484h-3.02v2.416h3.334v1.485H19.59v-8.983h5.02v1.484zm5.511 4.957a2.98 2.98 0 00.05.573.988.988 0 00.188.434.931.931 0 00.371.277c.186.072.385.107.585.1.275.002.541-.094.751-.27.222-.18.334-.46.334-.837a1.502 1.502 0 00-.082-.522 1.03 1.03 0 00-.27-.397 1.929 1.929 0 00-.498-.32 7.178 7.178 0 00-.761-.296 6.447 6.447 0 01-1.044-.438 2.81 2.81 0 01-.74-.562 1.998 1.998 0 01-.431-.74 3.115 3.115 0 01-.14-.976c0-.888.248-1.55.743-1.987.496-.437 1.175-.655 2.039-.655.375-.003.749.041 1.113.132.32.08.62.225.881.428.25.202.45.46.579.755.146.348.217.724.207 1.102v.25H32.26c0-.428-.076-.757-.227-.988-.151-.23-.403-.346-.755-.346a1.266 1.266 0 00-.501.088.856.856 0 00-.321.233.804.804 0 00-.163.334c-.03.128-.044.259-.044.39-.009.244.052.487.176.698.117.19.369.363.754.522l1.393.602c.298.125.581.284.843.473.202.146.379.324.523.528.13.188.221.4.27.622.053.249.078.502.076.756 0 .947-.275 1.637-.824 2.07-.55.432-1.315.647-2.297.647-1.023 0-1.755-.222-2.195-.666-.44-.445-.661-1.082-.661-1.913v-.365h1.815v.264zm10.329-4.957h-1.962v7.499h-1.812v-7.5h-1.963V15.88h5.737v1.484zm2.48 4.781c-.002.21.013.419.044.626.023.172.078.338.163.49.078.137.19.25.327.327a1.213 1.213 0 001.05 0 .884.884 0 00.324-.33 1.39 1.39 0 00.163-.49c.031-.207.046-.416.045-.626V15.88h1.815v6.265c0 .57-.08 1.042-.24 1.415a2.267 2.267 0 01-.641.888 2.177 2.177 0 01-.919.438c-.351.076-.71.114-1.07.113a5.532 5.532 0 01-1.069-.1 2.167 2.167 0 01-.918-.41 2.093 2.093 0 01-.642-.875c-.16-.376-.239-.867-.239-1.473v-6.26h1.815l-.009 6.264zm8.127-6.264c.63 0 1.137.102 1.523.307.38.2.692.506.9.881.228.429.374.895.432 1.377a12.9 12.9 0 01.113 1.8c.008.688-.04 1.376-.144 2.057-.097.584-.262 1.064-.497 1.44a2.186 2.186 0 01-.944.842c-.394.185-.893.277-1.497.277h-2.855V15.88h2.97zm-.352 7.65c.319 0 .574-.055.768-.165.207-.125.368-.315.459-.54.113-.25.188-.582.226-.994.038-.412.057-.924.057-1.535 0-.512-.017-.961-.05-1.347a3.347 3.347 0 00-.208-.963 1.205 1.205 0 00-.466-.578c-.206-.13-.48-.195-.824-.195H49.9v6.315l.805.001zm4.605-7.65h1.812v8.982H55.31v-8.983zm3.063 2.609c.063-.575.202-1.067.416-1.479.207-.404.529-.739.925-.962.402-.23.943-.346 1.622-.346.68 0 1.221.115 1.624.346.395.224.717.558.925.962.214.411.352.904.414 1.479a18.828 18.828 0 010 3.768c-.062.57-.2 1.062-.415 1.473a2.21 2.21 0 01-.924.943c-.403.218-.944.327-1.624.327-.68 0-1.22-.109-1.622-.327a2.207 2.207 0 01-.925-.943c-.214-.411-.353-.902-.416-1.473a18.948 18.948 0 010-3.768zm1.762 3.422c.016.35.075.697.176 1.032.088.264.214.457.376.579.161.121.379.182.647.182.269 0 .485-.063.649-.182.164-.12.289-.313.375-.58.1-.334.16-.681.176-1.031.03-.423.044-.937.044-1.541 0-.605-.014-1.117-.044-1.536a4.355 4.355 0 00-.176-1.03c-.088-.27-.213-.465-.375-.586-.162-.121-.378-.182-.649-.183-.268 0-.484.061-.647.183-.164.121-.29.317-.376.585-.1.336-.16.682-.176 1.031-.03.42-.044.932-.044 1.536 0 .603.015 1.117.044 1.541z"/></g><defs><clipPath id="clip0_127_8434"><path fill="#fff" d="M0 0h64.394v25H0z"/></clipPath></defs></svg>