<?xml version="1.0" encoding="UTF-8"?>
<svg id="Camada_1" data-name="Camada 1" xmlns="http://www.w3.org/2000/svg" viewBox="0 0 650.79 199.81">
  <defs>
    <style>
      .cls-1 {
        fill: #706f6f;
        stroke-width: 0px;
      }
    </style>
  </defs>
  <path class="cls-1" d="m41.36,47.92c13.45,0,14.15-1.27,14.15-12.62,0-13.31-.7-13.45-14.15-13.45h-10.23v25.92c2.66.15,6.3.15,10.23.15m578.75,1.25c0-25.65-.7-27.33-13.73-27.33s-13.59,1.68-13.59,27.33.56,27.18,13.59,27.18,13.73-1.69,13.73-27.18m-58.28,0c0-38.25,7.14-49.17,44.55-49.17s44.41,10.92,44.41,49.17-6.86,48.89-44.41,48.89-44.55-10.92-44.55-48.89M526.66,1.39h31.38l-26.33,95.28h-44.42L460.81,1.39h31.38l17.28,78.46L526.66,1.39Zm-107.31,0h31.1v95.28h-31.1V1.39Zm-67.39,21.43h-25.64V1.39h82.11v21.43h-25.51v73.84h-30.96V22.82ZM284.29,1.39h31.1v95.28h-31.1V1.39Zm-88.73,73.7s12.05.84,26.62.84c17.37,0,22.13-1.26,22.13-6.44,0-3.63-1.25-5.31-7.14-6.73l-19.62-4.9c-19.62-5.46-23.96-10.65-23.96-28.02C193.6,9.4,205.91.01,237.39,0h.23c14.65.01,29.25,1.53,29.25,1.53l-.29,21.58s-13.02-.7-25.91-.7c-14.43,0-18.07.98-18.07,6.3,0,4.07,1.96,5.61,8.55,7.02l20.03,4.48c19.62,4.91,22,12.9,22,28.16,0,22.98-14.29,29.7-44.69,29.7-15.83,0-33.07-1.53-33.07-1.53l.14-21.44Zm-41.7-25.91c0-25.65-.7-27.33-13.72-27.33s-13.59,1.68-13.59,27.33.56,27.18,13.59,27.18,13.72-1.69,13.72-27.18m-58.28,0C95.57,10.92,102.72,0,140.13,0s44.41,10.92,44.41,49.17-6.87,48.89-44.41,48.89-44.56-10.92-44.56-48.89M.03,1.41s17.94,0,38.25,0c39.66,0,48.2,5.16,48.2,33.88,0,26.2-9.39,31.94-45.81,31.94h-9.53v29.43H.03V1.41Z"/>
  <path class="cls-1" d="m43.02,145.29v6.61h-17.86v47.22h-7.3v-47.22H0v-6.61h43.02Zm43.19,46.97v6.87h-35.72v-53.84h34.95v6.61h-27.65v16.48h24.47v6.44h-24.47v17.43h28.42Zm29.62.69c2.35,0,4.82-.27,7.43-.82,2.61-.54,5.02-1.27,7.26-2.19v6.53c-3.15,1.26-5.94,2.13-8.37,2.62-2.43.49-4.96.73-7.6.73-8.24,0-14.05-2.13-17.43-6.4-3.38-4.26-5.07-11.38-5.07-21.34s1.96-16.56,5.88-20.99c3.92-4.44,10.17-6.66,18.76-6.66,2.63,0,4.98.06,7.04.17,2.06.12,3.92.32,5.58.6v6.44c-2-.23-4.02-.39-6.05-.47-2.03-.09-4.22-.13-6.57-.13-6.41,0-10.88,1.59-13.39,4.77-2.52,3.18-3.78,8.6-3.78,16.27s1.15,13.21,3.44,16.27c2.29,3.06,6.58,4.59,12.88,4.59m67.15-47.65v53.84h-7.39l-29.8-41.9v41.9h-6.87v-53.84h7.38l29.8,42.5v-42.5h6.87Zm58.04,26.79c0,9.79-1.88,16.86-5.62,21.21-3.75,4.35-9.86,6.53-18.33,6.53-9.1,0-15.38-2.02-18.85-6.05-3.46-4.04-5.19-11.26-5.19-21.68,0-9.73,1.89-16.77,5.67-21.12,3.78-4.35,9.9-6.53,18.37-6.53,9.1,0,15.37,2.02,18.8,6.05,3.43,4.04,5.15,11.24,5.15,21.6m-38.04,15.54c1.09,1.95,2.69,3.32,4.81,4.12,2.12.8,5.21,1.2,9.27,1.2,6.35,0,10.71-1.53,13.05-4.59,2.35-3.06,3.52-8.49,3.52-16.27,0-3.89-.2-7.08-.6-9.57-.4-2.49-1.03-4.51-1.89-6.05-1.09-1.95-2.68-3.34-4.77-4.17-2.09-.83-5.2-1.24-9.32-1.24-6.41,0-10.79,1.55-13.14,4.64-2.35,3.09-3.52,8.56-3.52,16.4,0,3.89.2,7.08.6,9.57.4,2.49,1.06,4.48,1.97,5.97m81.06,4.64v6.87h-32.97v-53.84h7.3v46.97h25.67Zm51.86-20.18c0,9.79-1.88,16.86-5.62,21.21-3.75,4.35-9.86,6.53-18.33,6.53-9.1,0-15.38-2.02-18.85-6.05-3.46-4.04-5.2-11.26-5.2-21.68,0-9.73,1.89-16.77,5.67-21.12,3.78-4.35,9.9-6.53,18.38-6.53,9.1,0,15.37,2.02,18.8,6.05,3.43,4.04,5.15,11.24,5.15,21.6m-38.04,15.54c1.09,1.95,2.69,3.32,4.81,4.12,2.12.8,5.21,1.2,9.27,1.2,6.35,0,10.7-1.53,13.05-4.59,2.35-3.06,3.52-8.49,3.52-16.27,0-3.89-.2-7.08-.6-9.57-.4-2.49-1.03-4.51-1.89-6.05-1.09-1.95-2.68-3.34-4.77-4.17-2.09-.83-5.2-1.24-9.32-1.24-6.41,0-10.79,1.55-13.14,4.64-2.35,3.09-3.52,8.56-3.52,16.4,0,3.89.2,7.08.6,9.57.4,2.49,1.06,4.48,1.97,5.97m82.26-10.56h-14v-6.44h20.87v25.93c-1.6.74-4.46,1.47-8.59,2.19-4.12.72-7.87,1.07-11.25,1.07-8.87,0-15.01-2.09-18.42-6.27-3.41-4.18-5.11-11.31-5.11-21.38,0-9.5,2.03-16.5,6.1-20.99,4.06-4.49,10.45-6.74,19.15-6.74,2.98,0,5.82.07,8.55.22,2.72.14,4.94.36,6.65.65v6.44c-2.29-.23-4.77-.4-7.43-.51-2.66-.11-5.25-.17-7.77-.17-6.53,0-11.12,1.6-13.78,4.81-2.66,3.2-3.99,8.64-3.99,16.32,0,3.78.21,6.94.64,9.49.43,2.55,1.13,4.59,2.1,6.14,1.15,1.95,2.78,3.34,4.9,4.16,2.12.83,5.21,1.25,9.27,1.25,1.6,0,3.49-.13,5.67-.39,2.18-.26,4.32-.62,6.44-1.08v-14.68Zm24.3,22.07h-7.3v-53.84h7.3v53.84Zm14.6,0h-7.73l21.3-53.84h7.55l21.04,53.84h-7.73l-4.9-12.97h-24.64l-4.89,12.97Zm17.17-47.14c-.57,2-1.24,4.12-2.02,6.35-.77,2.23-1.56,4.47-2.36,6.7l-5.5,14.68h19.83l-5.49-14.68c-1.15-3.15-2.05-5.7-2.71-7.64-.66-1.95-1.24-3.75-1.76-5.41"/>
</svg>