<?xml version="1.0" encoding="UTF-8"?>
<svg id="Layer_1" data-name="Layer 1" xmlns="http://www.w3.org/2000/svg" viewBox="0 0 280.69 70.89">
  <defs>
    <style>
      .cls-1 {
        fill: #fcfc30;
      }

      .cls-1, .cls-2 {
        stroke-width: 0px;
      }

      .cls-2 {
        fill: #00549c;
      }
    </style>
  </defs>
  <rect class="cls-1" width="280.69" height="70.89"/>
  <g>
    <path class="cls-2" d="m40,31.08c4.88-.97,7.33-4.2,7.33-8.67,0-8.29-5.66-10.07-12.51-10.07h-15.97v38.87h15.91c3.81,0,13.29-.43,13.29-10.28,0-5.33-1.67-9.05-8.04-9.85Zm-11.34-12.71h4.74c2.6,0,4.43,2.1,4.43,4.95,0,3.77-2.34,4.95-4.03,4.95h-2.68l-2.46.03v-9.94Zm4.28,26.92h-4.28v-10.98l2.47-.06h2.02c3.87,0,5.1,2.1,5.1,5.55,0,5.44-3.67,5.49-5.3,5.49Z"/>
    <path class="cls-2" d="m109.94,27.66c0-2.2,1.34-3.39,3.61-3.39h7.38s0-4.9,0-4.9h-10.37c-8.53,0-10.63,3.85-10.63,8.83,0,9.48,15.28,9.25,15.28,14.58,0,2.16-1.16,3.61-3.52,3.61h-10.93s-8.11-27-8.11-27h-9.7l-8.97,28.96-5.63-12.45c4.13-.77,5.77-3.39,5.78-8.18.01-5.42-3.22-8.33-8.24-8.33h-15.18v31.82h8.3v-26.93h2.75c2.34,0,4.37,1.71,4.37,4.84,0,2.65-1.33,4.83-3.46,4.69l-2.31.03,7.55,17.37h13.27l2-7.05h8.58l1.95,7.05h19.28c5.33,0,10.72-.71,10.72-8.95,0-9.51-13.79-8.56-13.79-14.6Zm-25.57,11.63l2.93-13.02,3.22,13.02h-6.14Z"/>
    <path class="cls-2" d="m173.42,19.14h-13.29v32.09h8.25v-13.07h4.6c8.65,0,9.83-5.78,9.83-9.42,0-5.87-2.64-9.6-9.39-9.6Zm-1.81,14.09h-3.23v-9.15h2.84c1.7,0,3.64,1.39,3.64,4.84,0,2.5-2.22,4.31-3.25,4.31Z"/>
    <rect class="cls-2" x="126.74" y="19.39" width="8.1" height="31.82"/>
    <polygon class="cls-2" points="147.68 19.39 139.58 19.39 139.58 51.21 157.12 51.21 157.12 46.4 147.68 46.4 147.68 19.39"/>
    <polygon class="cls-2" points="220.2 36.82 230.58 36.82 230.58 31.92 220.2 31.92 220.2 24.07 231.5 24.07 231.5 19.18 212 19.18 212 51.02 231.89 51.02 231.89 46.12 220.2 46.12 220.2 36.82"/>
    <path class="cls-2" d="m208.54,27.56c.01-5.45-3.24-8.38-8.29-8.38h-15.27v32.02h8.35v-27.09h2.77c2.36,0,4.4,1.72,4.4,4.86,0,2.67-1.33,4.86-3.48,4.72l-2.32.03,7.6,17.47h7.42l-6.99-15.4c4.15-.77,5.8-3.41,5.82-8.23Z"/>
    <polygon class="cls-2" points="252.52 19.18 247.28 42.45 247.18 42.45 242.42 19.18 233.86 19.18 242.05 51.18 251.7 51.18 260.48 19.18 252.52 19.18"/>
  </g>
</svg>