<?xml version="1.0" encoding="UTF-8"?>
<svg id="Camada_1" data-name="Camada 1" xmlns="http://www.w3.org/2000/svg" viewBox="0 0 1883.81 2121.57">
  <defs>
    <style>
      .cls-1 {
        fill: #e31c40;
      }

      .cls-1, .cls-2 {
        stroke-width: 0px;
      }

      .cls-2 {
        fill: #fff;
      }
    </style>
  </defs>
  <path class="cls-1" d="m524.44,352.75c-16.12,2.36-30.87,6.32-45.73,9.72-23.03,5.27-45.87,11.29-68.56,17.86-3.89,1.12-7.79,1.88-11.79,1.82-8.29-.12-13.71-4.14-16.73-11.82-2.96-7.56-.52-13.64,4.9-18.97,3.61-3.55,8.07-5.82,12.46-8.23,43.32-23.8,89.04-41.93,136.02-56.94,6.37-2.04,9.78-5.11,12.23-11.29,54.22-136.4,173.59-237.58,317.59-265.39,167.49-32.34,308.02,18.43,422.79,143.3,3.37,3.67,6.68,7.45,8.88,12.02,3.46,7.18,2.52,13.2-3.03,19.25-5.96,6.49-12.27,8.25-19.66,5.55-4.15-1.52-7.56-4.17-10.93-6.9-54.62-44.21-117.27-70.09-186.24-81.55-136.06-22.6-275.25,30.1-362.34,133.22-2.73,3.23-5.27,6.61-9.15,11.5,13.12-1.86,24.18-3.39,35.24-5,30.67-4.46,61.48-7.47,92.39-9.68,43.95-3.15,87.93-3.5,131.9-1.61,110.07,4.72,217.83,21.94,321.14,61.85,46.8,18.08,91.13,40.81,130.7,72.04,24.77,19.55,46.7,41.8,62.8,69.19,31.33,53.29,31.87,107.38,2.84,161.66-19.22,35.94-47.58,64-79.48,88.68-47.52,36.77-100.59,63.61-155.96,86.22-20.63,8.43-41.58,16.05-62.79,22.91-6.05,1.96-12.1,3.47-18.57,1.57-13-3.83-17-19.01-7.26-28.48,5.83-5.66,13.22-8.86,20.52-12.13,30.42-13.65,59.91-29.01,87.73-47.45,28.75-19.06,55.5-40.42,76.79-67.9,4.27-5.52,8.15-11.38,11.76-17.35,21.04-34.8,20.44-70.05,1.6-105.44-12.11-22.75-29.65-40.92-49.55-56.91-34.87-28.04-74.39-47.83-115.76-64.1-54.99-21.64-111.97-36.14-170.06-46.65-91.52-16.55-183.83-22.01-276.66-19.57-26.64.7-53.23,3.01-79.86,4.14-8.66.37-13.28,3.58-16.52,12.09-20.35,53.46-29.06,108.49-24.35,165.57,7.07,85.83,38.72,161.17,96.22,225.49,7.11,7.96,14.7,15.45,22.66,22.56,2.98,2.67,5.88,5.41,7.91,8.94,6.79,11.82-2.08,27.26-15.72,27.36-6.64.05-12.15-2.96-17.55-6.39-41.18-26.19-76.7-58.66-106.7-97.08-47.1-60.32-76.75-128.32-87.83-204.06-6.06-41.42-6.42-82.97,1.08-124.37.3-1.64.45-3.3.59-4.96.08-.95.02-1.91.02-4.29Z"/>
  <path class="cls-1" d="m851.09,1345.58c1.91-3.35,1.1-6.75,1.12-10.02.09-16.98.1-33.96.02-50.94-.05-9.64,3.58-17.47,11-23.54,17.16-14.03,36.59-23.89,58.41-31.93.18,3.23.44,5.69.44,8.16.02,115.21.02,230.42.01,345.62,0,9.38-.02,9.46-9.21,12.08-36.84,10.52-74.5,14.86-112.62,11.89-35.48-2.76-66.53-15.78-88.8-45.19-12.56-16.58-19.4-35.56-22.61-55.86-4.21-26.67-3.22-53.2,5.33-78.95,15.36-46.23,47.52-73.34,95.41-81.77,18.17-3.2,36.43-3.05,54.66-.1,2.27.37,4.61.39,6.83.56Z"/>
  <path class="cls-1" d="m1062.6,877.37c0,55.64,0,111.27-.01,166.91,0,3.33.15,6.7-.3,9.98-.98,7.01-5.86,12.16-12.85,13.5-3.24.62-6.62.66-9.94.67-27.99.05-55.98.04-83.98.02-10.3,0-10.35-.04-10.35-10.31-.01-95.61-.05-191.23.06-286.84,0-8.25-3.07-17.93,1.54-24.37,4.25-5.94,13.06-8.69,19.96-12.68,21.9-12.66,43.84-25.24,65.77-37.85,2.02-1.16,4.1-2.22,6.09-3.42,12.04-7.26,24.39-.2,24.24,14.49-.58,56.63-.24,113.27-.24,169.9Z"/>
  <path class="cls-1" d="m1395.35,1407.06c-9.03-2.12-17.71-4.17-26.4-6.18-15.71-3.64-31.65-4.2-47.69-3.65-5.06.17-9.98,1.1-14.57,3.11-11.79,5.18-14.1,19-4.75,27.85,4.43,4.19,9.91,6.71,15.41,9.08,11,4.73,22.06,9.32,33.1,13.97,9.53,4.02,18.73,8.64,27.28,14.5,25.52,17.49,32.34,42.97,29.64,71.83-2.62,27.95-18.17,47.24-43.08,59.36-11.19,5.45-23.13,8.93-35.42,9.83-28.71,2.1-57.41,1.46-85.1-7.44-24.61-7.91-19.72-5.42-22.87-28.69-1.47-10.82.53-23.53,3.9-33.21,3.26.98,6.66,1.89,9.98,3.02,24.19,8.22,48.91,12.79,74.59,11.09,4.72-.31,9.26-1.19,13.64-2.81,8.58-3.18,13.78-9.21,14.4-18.55.57-8.65-2.47-15.63-10.08-20.3-5.7-3.49-11.85-6.02-17.98-8.6-12.26-5.17-24.51-10.35-36.69-15.67-6.11-2.67-11.68-6.34-17.39-9.77-39.26-23.51-42.9-89.35.18-116.66,16.47-10.45,34.47-15.93,53.64-17.09,25.76-1.56,51.17,1.06,76.01,8.64,7.52,2.3,11.43,5.65,12.18,14.28,1.23,14.07.83,27.82-1.91,42.06Z"/>
  <path class="cls-1" d="m1636.95,1590.83c-11.47,6.83-23.45,10.45-35.85,13-23.76,4.89-47.72,5.8-71.44.93-40.63-8.34-69.14-31.99-83.13-71.24-13.88-38.95-14.05-78.61.19-117.43,15.74-42.89,47.14-67.4,92.69-73.05,31.01-3.85,61.1-.38,89.76,12.67,2.02.92,4.56,1.29,6.04,4.4-10.09,14.31-18.4,30.04-23.72,47.57-6.12-1.83-11.49-3.45-16.87-5.04-11.33-3.34-22.97-4.25-34.63-3.12-21.14,2.04-35.84,13.24-43.85,32.88-6.94,17-8.45,34.85-6.95,52.96.85,10.29,2.7,20.43,6.8,30.06,9.58,22.49,26.25,34.59,50.94,34.93,12.39.17,24.56-1.26,36.32-5.52,7.36-2.67,7.58-2.57,10.4,4.94,5.54,14.71,14.04,27.75,23.29,41.07Z"/>
  <path class="cls-1" d="m342.8,1378.57c3.61-1.49,5.23-4.58,7.38-6.98,20-22.3,45.42-28.97,74.22-25.75,7.51.84,8.41,1.64,9.15,9.11,1.44,14.63,1.29,29.24-1.29,43.8-.71,4.01-2.75,4.62-6.21,4.45-6.65-.32-13.33-.58-19.98-.41-23.25.58-39.69,11.91-49.82,32.51-6.29,12.78-8.46,26.51-8.43,40.7.1,38.31.03,76.63.03,114.94,0,2.33-.09,4.67-.01,7,.11,3.34-1.65,4.76-4.77,5.14-20.26,2.45-40.51,3-60.79.12-3.36-.48-4.5-2.29-4.43-5.38.05-2,0-4,0-6,0-77.96-.03-155.92.03-233.88,0-12.33-1.39-10.11,10.61-11.82,12.86-1.83,25.9-1.42,38.88.1,5.27.61,8.37,2.62,9.45,8.27,1.54,8.04,3.91,15.91,5.98,24.09Z"/>
  <path class="cls-1" d="m918.03,763.69c1.35,3.5.77,6.86.77,10.14.03,94.54.03,189.09.02,283.63,0,11.42,1.26,10.99-10.59,10.99-16.32,0-32.63.08-48.95-.03-12.65-.09-15.55-2.85-15.56-15.17-.06-77.57.05-155.13-.12-232.7-.03-10.84,4.14-18.19,13.65-23.43,18.05-9.97,35.77-20.51,53.68-30.74,1.95-1.11,3.7-2.86,7.12-2.68Z"/>
  <path class="cls-1" d="m1064.28,1922.72c0,30.31.02,60.61-.01,90.91,0,8.27-.06,8.37-8.27,10.46-27.24,6.93-54.83,10.68-83.02,9.33-7.03-.34-13.94-1.36-20.71-3.03-33.88-8.37-54.88-31.86-59.93-66.8-1.29-8.9-2.01-17.83-1.97-26.86.14-34.63.04-69.27.07-103.9,0-9.17.07-9.1,9-10.02,6.66-.69,13.28-.26,19.95.06,5.2.25,6.68,2.42,6.64,7.4-.19,24.98-.11,49.95-.08,74.93.02,13.65.09,27.31.22,40.96.08,8.39,1.7,16.57,4.41,24.47,7.64,22.23,24.43,32.41,46.86,34.28,15.34,1.28,30.56-.35,45.67-3.42,4.1-.83,5.67-2.43,5.54-6.5-.2-6.32-.04-12.65-.04-18.98,0-46.96,0-93.91,0-140.87,0-2.66,0-5.33.06-7.99.05-2.38,1.36-3.57,3.68-3.86,9.3-1.16,18.59-1.24,27.9-.08,2.86.36,4.06,1.83,4.01,4.6-.04,2.33.03,4.66.03,6.99,0,29.31,0,58.61,0,87.92Z"/>
  <path class="cls-1" d="m447.4,1857.24c-10.88-2.28-21.26-5.96-32.14-7.15-12.65-1.38-25.29-1.98-37.7,1.55-13.56,3.86-20.29,12.9-19.47,25.31.5,7.64,4.55,13.05,10.4,17.38,5.65,4.18,12.03,7.1,18.37,10.05,9.95,4.63,19.96,9.16,29.86,13.88,6.02,2.87,11.47,6.7,16.93,10.53,29.44,20.63,33.71,74.24-8.38,95.62-10.22,5.19-21.01,8.39-32.48,8.92-21.76,1-43.29-.1-63.98-7.87-10.03-3.76-10.45-4.28-10.72-15.14-.09-3.66.16-7.32.27-10.99.14-4.43,1.99-5.85,6.38-4.14,12.15,4.73,24.77,7.73,37.72,9.17,11.63,1.29,23.28,1.76,34.75-1.35,16.81-4.56,24.89-15.93,23.12-32.3-.88-8.16-5.14-14.29-11.44-19.16-6.9-5.33-14.75-8.99-22.69-12.48-12.17-5.36-24.64-10.11-35.95-17.25-10.64-6.72-20.01-14.76-23.99-27.14-8.05-25.06-1.74-47.14,20.99-61.75,9.42-6.05,19.75-9.93,30.69-11.26,21.07-2.57,41.85-.59,62.22,5.74,5.93,1.84,8.69,5.08,8.49,11.44-.19,5.96.26,11.93-1.26,18.39Z"/>
  <path class="cls-1" d="m1426.83,1993.86c7.5,2.26,14.06,4.52,20.76,6.21,17.86,4.5,35.87,7.3,54.27,3.48,1.62-.34,3.26-.67,4.84-1.18,10.86-3.53,18.98-10.03,21.06-21.75,2.17-12.22-2.07-22.2-12.18-29.65-7.03-5.18-14.87-8.75-22.78-12.25-12.76-5.65-25.76-10.76-37.54-18.45-16.68-10.89-25.12-26.04-24.81-46.07.19-12.22,4.37-22.72,12.7-31.62,11.69-12.49,26.62-18.89,43.11-20.98,20.68-2.62,41.21-.65,61.14,5.83,8.24,2.68,8.65,3.27,8.84,12.09.12,5.61,2.17,12.82-1.62,16.36-3.71,3.47-9.77-1.48-14.81-2.59-17.35-3.82-34.71-6.19-52.39-2.24-3.61.81-7,2.1-10.19,3.92-13.98,8-15.95,26.42-3.93,37.2,3.99,3.58,8.65,6.21,13.46,8.49,11.41,5.41,22.89,10.69,34.32,16.04,9.39,4.4,17.97,9.97,25.71,16.96,22.21,20.07,25.91,66.45-9.17,87.93-9.53,5.84-19.79,9.95-30.73,11.05-24.03,2.41-47.76.84-70.93-7.09-7.67-2.63-10.59-6.79-10.3-14.51.2-5.31.14-10.61,1.18-17.21Z"/>
  <path class="cls-1" d="m1140.52,1850.91c2.77-3.08,4.47-5.05,6.26-6.93,15.99-16.88,35.39-23.93,58.62-21.15,5.66.68,7.52,3.01,7.31,8.13-.05,1.33.12,2.66.15,3.99.36,16.25.34,16.74-15.3,16.15-27.13-1.01-51.59,19.37-55.22,53.3-.67,6.27-.58,12.64-.59,18.96-.05,32.97,0,65.93-.04,98.9,0,8.49-.07,8.51-8.41,9.64-2.31.31-4.63.61-6.95.71-19.66.89-20.07.5-20.07-18.54,0-59.94,0-119.88,0-179.81,0-12.74-.75-10.2,10.42-11.79.33-.05.66-.1.99-.13,18.07-1.39,18.9-.71,21.06,16.91.4,3.29.99,6.56,1.76,11.64Z"/>
  <path class="cls-1" d="m223.95,1405.75c-10.31-27.3-29.62-46.31-57.37-56.02-21.15-7.41-42.99-8.13-65.07-5.43-10.58,1.3-20.6,4.8-31.55,8.17v-121.95c-2.06-.83-3.27-.36-4.53.12-18.12,6.92-35.09,15.88-50.74,27.43C4.51,1265.59-.04,1275.06,0,1287.92c.27,98.56.14,197.12.17,295.69,0,10.76-1.78,9.4,9.45,12.99,17.49,5.6,35.63,8.41,53.88,9.88,23.94,1.93,47.92,2.39,71.53-3.31,45.35-10.94,78.07-36.85,92.68-81.93,12.52-38.62,10.56-77.57-3.75-115.49Zm-66.02,101.31c-9.31,27.74-30.63,43.4-59.99,43.86-6.98.11-13.92-.13-20.9-1.1-5.4-.75-7.22-2.84-7.15-8.28.26-21.29.11-42.59.1-63.89,0-20.3-.03-40.6.01-60.9.02-8.81.08-8.79,8.71-11.63,13.54-4.45,27.53-5.31,41.45-3.46,17.15,2.28,29,12.21,36.06,28.04,5.55,12.46,6.9,25.72,7.12,39,.21,12.95-1.22,25.89-5.41,38.35Z"/>
  <path class="cls-2" d="m852.25,1475.97c0,21.29-.16,42.59.12,63.88.07,5.15-1.32,7.96-6.58,8.91-14.89,2.69-29.71,3.41-44.5-.57-18.11-4.87-30.5-16.36-36.46-33.83-9.35-27.39-8.72-55.09,1.59-82.07,7.89-20.63,24.18-31.06,45.9-33.04,10.96-1,21.93-.88,32.75,1.68,7,1.65,7.13,1.62,7.15,9.16.06,21.96.02,43.92.02,65.88Z"/>
  <path class="cls-1" d="m1878.26,1429.71c-11.28-42.51-36.44-71.91-79.9-83.47-18.48-4.92-37.34-5.82-56.44-3.32-46.31,6.06-78.04,30.6-93.41,74.68-12.75,36.58-12.91,74.02-1.35,110.87,12.63,40.25,39.8,66.08,81.31,75.76,20.02,4.67,40.29,4.74,60.48,1.07,39.7-7.23,67.72-29.26,83.33-66.67,8.47-20.3,10.86-41.72,11.53-64.35-.74-14.39-1.6-29.67-5.55-44.57Zm-71.75,88.49c-9.45,29-38.9,41.8-66.67,29-10.54-4.86-17.17-13.31-21.62-23.78-4.76-11.21-6.23-23.1-7.14-35.03-1.24-16.33-.33-32.58,3.26-48.61.72-3.24,1.64-6.45,2.73-9.58,10.73-30.85,37.18-36.5,60.87-29.62,13.49,3.91,21.69,13.58,26.77,26.27,6.18,15.44,6.99,31.7,7.58,47.1-.28,15.59-1.19,30.19-5.78,44.27Z"/>
  <path class="cls-1" d="m1183.95,1412.35c-10.9-33.8-32.89-56.64-67.42-66.26-17.15-4.78-34.67-5.34-52.48-3.3-49.6,5.7-82.86,36.47-95.88,81.12-8.75,30-9.87,60.51-3.22,90.9,10.49,47.9,40.01,77.69,88.05,88.63,27.38,6.24,54.89,5.18,82.39.81,10.85-1.72,21.49-4.41,31.72-8.57,3.26-1.32,6-2.76,6.68-6.6,2.71-15.24,2.73-30.48-.01-45.71-.6-3.31-2.27-4.22-5.7-3.09-5.04,1.66-10.25,2.84-15.44,4-23.83,5.35-47.76,8.91-72.26,4.98-28.86-4.62-48.05-24.8-49.8-53.85,4.36,0,8,0,11.63,0,45.98,0,91.96.02,137.94-.02,8.12,0,8.62-.06,9.28-7.87,2.16-25.33,2.45-50.6-5.48-75.19Zm-71.74,32.04c-11.31.01-22.61,0-33.92,0-14.3,0-28.6-.05-42.89.02-3.67.02-5.5-.83-4.79-5.15,5.11-31.27,33.61-50.11,64.06-42.35,17.27,4.4,26.19,16.49,29.33,32.93,2.99,15.65,4.99,14.54-11.79,14.56Z"/>
  <path class="cls-1" d="m650.06,1511.8c0-19.66-.06-39.31.02-58.97.04-9.34-.5-18.61-1.61-27.9-4.9-40.7-28.07-67.67-68.03-77.96-37.08-9.55-74-5.61-110.81,2.21-4.3.91-4.84,3.88-5.41,7.26-2.01,11.9-2.51,23.79-.69,35.79,2,13.17,1.83,13.16,14.74,10.61,22.33-4.41,44.81-6.57,67.52-3.57,23.07,3.06,37.06,18.3,36.94,39.78-.02,4.18-.82,6.01-5.65,5.33-14.9-2.09-29.93-2.03-44.89-.99-19.41,1.35-38.21,5.43-55.5,14.84-19.62,10.68-31.92,26.82-35.77,49-1.49,8.58-1.33,17.3-.5,25.92,2.96,30.48,17.97,52.33,46.73,64.08,9.6,3.92,19.55,6.57,29.8,7.99,42.95,5.95,84.97.69,126.51-10.55,4.87-1.32,6.79-3.59,6.73-8.92-.3-24.65-.13-49.3-.13-73.96Zm-67.29,8.89c0,8.31-.07,16.62.03,24.94.05,3.67-1.44,5.28-5.19,5.69-14.9,1.65-29.76,3.13-44.67.08-4.59-.94-9.04-2.2-13.22-4.26-11.03-5.46-15.79-14.56-15.54-26.7.24-11.86,5.61-20.22,16.41-25.08,9.93-4.47,20.61-5.2,31.22-5.38,8.62-.14,17.25.97,25.89,1.24,3.93.12,5.18,1.86,5.12,5.53-.13,7.98-.04,15.96-.04,23.94Z"/>
  <path class="cls-1" d="m849.91,1840.26c0-8.24-.08-8.32-8.3-10.87-24.47-7.6-49.56-10.69-75-7.97-47.39,5.08-74.55,33.88-84.88,68.2-7.39,24.55-8.03,49.34-.93,73.87,9.48,32.77,30.66,54.19,64.66,60.92,19.91,3.94,39.79,1.88,59.19-4.25,2.98-.94,5.81-3.02,9.32-2.17,0,8.67.68,17.03-.12,25.26-2.79,28.78-17.89,44.26-46.73,48.44-22.62,3.27-44.39-.52-65.71-8.11-3.34-1.19-6.39-3.71-10.63-2.93-1.24,6.21-.55,12.53-.86,18.79-.31,6.28,2.45,9.48,8.29,11.62,27.51,10.09,55.73,13.4,84.47,7.79,33.08-6.45,54.68-26.09,63.38-59.04,2.56-9.69,3.82-19.63,3.83-29.65.08-63.3.05-126.61.03-189.91Zm-42.54,151.62c-15.07,5.18-30.5,7.31-46.18,5.32-23.26-2.95-37.85-17.11-44.75-38.78-7.62-23.96-6.36-48.02,3.52-71.17,10.45-24.47,29.9-36.5,56.11-38,10.31-.59,20.62-.13,30.79,1.99,7.36,1.54,7.49,1.53,7.52,9.03.07,20.29.02,40.58.02,60.88,0,20.29-.22,40.59.14,60.87.1,5.71-1.93,8.06-7.17,9.86Z"/>
  <path class="cls-1" d="m1406.6,1926.76c.4-15.75-1.47-31.23-6.34-46.23-9.12-28.08-26.73-47.84-55.76-56.3-10.68-3.11-21.59-3.83-32.6-3.54-40.49,1.06-69.5,22.68-81.48,61.31-8.47,27.29-8.66,55.04-2.26,82.79,8.17,35.43,32.59,66.96,81.38,69.28,44.64,2.12,77.94-19.77,91.06-62.04,4.59-14.77,6.43-29.86,6-45.27Zm-35.72-1.35c.05,16.59-1.26,30.75-6.04,44.49-11.09,31.91-38.91,40.59-66.5,33.34-12.62-3.32-21.46-11.67-27.73-22.88-4.93-8.83-7.77-18.39-9.07-28.36-2.69-20.62-2.87-41.17,2.74-61.42.97-3.51,2.27-6.96,3.73-10.31,9.21-21.08,25.56-31.48,48.8-31.15,22.38.32,38.53,11.33,46.95,32.4,5.91,14.78,7.3,30.34,7.12,43.89Z"/>
  <path class="cls-1" d="m648.24,1885.69c-6.92-30.47-23.33-53.48-54.39-61.78-41.95-11.21-86.09,3.68-105.22,51.18-13.02,32.32-13.56,65.67-2.34,98.67,10.19,29.96,31.4,48.71,62.03,56.69,8.73,2.27,17.67,3.06,26.7,3.2,19.45.29,38.5-1.97,56.98-8.28,3.16-1.08,6.58-1.75,7.12-5.91,1.03-7.87,2.18-15.75-1.5-23.49-3.21.94-6.06,1.8-8.93,2.61-18.07,5.04-36.41,8.06-55.22,6.7-25.99-1.89-44.37-14.57-54.16-39.01-3.87-9.66-5.76-19.72-5.91-30.12,3.22-1.86,6.63-1.02,9.88-1.03,18.98-.08,37.97-.04,56.95-.04,20.98,0,41.96-.13,62.94.09,5.06.05,7.09-1.49,7.17-6.71.23-14.31,1.11-28.62-2.11-42.75Zm-37.14,22.91c-15.33.13-30.67.04-46,.04-15,0-30-.12-45,.07-4.73.06-6.39-1.33-6.05-6.32,1.83-26.98,21.93-49.84,47.94-54.1,19.12-3.13,36.76,5.27,46.62,22.02,5.73,9.73,7.77,20.47,8.89,31.45.63,6.21.12,6.79-6.4,6.84Z"/>
</svg>