<?xml version="1.0" encoding="UTF-8"?>
<svg id="Camada_1" data-name="Camada 1" xmlns="http://www.w3.org/2000/svg" viewBox="0 0 250.7 66.38">
  <defs>
    <style>
      .cls-1, .cls-2, .cls-3 {
        stroke-width: 0px;
      }

      .cls-1, .cls-3 {
        fill: #362783;
      }

      .cls-2 {
        fill: #52b6e2;
      }

      .cls-2, .cls-3 {
        fill-rule: evenodd;
      }
    </style>
  </defs>
  <path class="cls-2" d="m53.73,0h40.37c11.68,0,17.91,14.66,9.53,22.99l-38.91,38.54c-3.55,3.49-7.17,4.9-10.98,4.86-3.8.04-7.43-1.36-10.98-4.86L3.86,22.99C-4.52,14.66,1.71,0,13.39,0h40.34Z"/>
  <path class="cls-3" d="m7.78,21.65h27.6c-4.71,4.24-9.8,8.59-10.79,12.99l-3.87.06-12.94-13.04Z"/>
  <path class="cls-3" d="m73.74,23.02l-15.61.21-10.37,11.21,15.82.05c2.93,1.15,2.56,4.4,1.31,5.55l-9.85,9.06c-1.26,1.15-3.4,1.15-4.61-.11l-8.22-8.74c-1.15-1.2-1.05-3.4.1-4.66l14.14-15.24h35.14l10.9-11.26-42.58-.21c-6.55.15-9.43,1.05-11.99,3.77l-18.12,19.21c-2.77,2.93-2.93,7.86-.16,10.74l18.28,19.01c2.77,2.88,7.49,3.14,10.42.37l20.85-20.05c2.88-2.73,2.41-7.44.16-10.74l-5.61-8.17Z"/>
  <path class="cls-1" d="m161.22,44.43V5.65c0-1.82.43-3.17,1.26-4.1.83-.89,1.92-1.35,3.32-1.35s2.53.46,3.41,1.35c.83.93,1.27,2.28,1.27,4.1v38.78c0,1.82-.44,3.17-1.31,4.06-.87.93-1.96,1.35-3.36,1.35s-2.45-.47-3.27-1.39c-.88-.93-1.31-2.29-1.31-4.02"/>
  <path class="cls-1" d="m136.63,49.63h-4.41c-5.5,0-5.42-8.42.26-8.42,3.54,0,7.16.26,10.65.09.66-.04,1.27-.09,1.88-.17,3.01-.42,5.28-2.71,5.28-5.45,0-2.16-1.4-4.06-3.45-4.95-1.66-.76-3.36-.51-5.15-.55l-5.72-.04h-3.36c-6.11,0-6.29-8.79.57-8.79h1.44c2.49,0,4.45-.21,5.81-.68,1.35-.46,2.4-1.35,3.14-2.62.57-.93.83-1.94.83-3.09,0-2.45-.87-4.06-2.66-4.86-1.79-.76-4.5-1.19-8.17-1.19h-8.17v34.72c0,8.41-10,7.95-10.04.76V7.55c0-2.11.48-3.64,1.44-4.57.96-.93,2.49-1.39,4.63-1.39h16.11c2.36,0,4.41.17,6.16.42,1.75.3,3.27.85,4.67,1.65,4.85,2.83,7.77,9.22,6.11,14.54-.57,1.94-.79,3.76-2.8,5.5,11.75,3.55,9.65,21.82-2.27,25.2-3.62,1.02-7.16.72-12.79.72"/>
  <path class="cls-1" d="m219.85,35.88c-.26-1.61-.09-3.51-.09-5.12-.04-3.3.13-7.23.13-9.89,0-5.71-9-5.79-9-.25v4.4c0,3.89-.04,9.13.13,11.8.18,3.47,1.92,6.59,4.54,8.96,5.89,5.41,15.85,5.41,21.74,0,2.58-2.37,4.32-5.5,4.54-8.96.17-2.67.13-7.91.13-11.8v-4.4c0-5.54-8.99-5.45-8.99.25,0,2.66.13,6.6.13,9.89,0,1.61.13,3.51-.09,5.12-1.09,7.53-12.1,7.53-13.19,0"/>
  <path class="cls-3" d="m190.83,16.39c6.03,0,12.79,3.76,15.94,9.09,1.14,1.86,1.83,4.02,1.83,6.26v13.49c0,6.17-8.65,6.51-8.65,0l.04-11.67c0-2.66-.7-3.89-2.66-5.92-1.61-1.65-3.93-2.71-6.51-2.71-4.89,0-8.86,3.85-8.86,8.58,0,2.79,1.4,5.33,3.54,6.89,2.53,1.82,4.67,1.65,7.34,1.65s4.8,1.9,4.8,4.19c0,1.39-.79,2.62-1.97,3.38-1.83,1.44-5.81,1.14-7.99.76-8.25-1.44-14.59-8.46-14.59-16.87,0-9.43,7.99-17.12,17.73-17.12"/>
  <path class="cls-1" d="m218.6,3.56h15.77c1.88,0,3.28.42,4.23,1.23.92.8,1.4,1.86,1.4,3.21s-.48,2.45-1.4,3.3c-.96.8-2.36,1.23-4.23,1.23h-15.77c-1.88,0-3.28-.42-4.19-1.27-.96-.85-1.4-1.9-1.4-3.26s.48-2.37,1.44-3.17c.96-.84,2.36-1.27,4.15-1.27"/>
  <path class="cls-1" d="m185.39,58.11c-.22.23-.34.29-.54.29-.19,0-.46-.2-.46-.51,0-.19.46-.6.76-.87.38-.34.56-.39.9-.39s.52.06.9.39c.3.27.76.68.76.87,0,.32-.27.51-.46.51-.2,0-.32-.06-.54-.29l-.65-.63-.65.63Zm52.21,1.29c.14-.37.41-.49.82-.49h.4c.38,0,.71.09.9.59l2.02,5.44c.06.16.16.44.16.62,0,.4-.36.71-.79.71-.37,0-.63-.13-.76-.44l-.43-1.19h-2.69l-.44,1.19c-.11.32-.35.44-.74.44-.46,0-.78-.28-.78-.71,0-.18.1-.46.16-.62l2.16-5.54Zm1.01,1.26h-.02l-.99,2.86h1.96l-.95-2.86Zm-10.75-1.8c1.92,0,2.97,1.17,2.97,1.86,0,.45-.26.73-.75.73-.97,0-.68-1.28-2.21-1.28-1.05,0-1.92.88-1.92,2.42,0,1.29.53,2.42,1.98,2.42,1.32,0,1.29-1.36,2.09-1.36.41,0,.82.23.82.62,0,1.03-1.29,2.05-2.91,2.05-2.3,0-3.65-1.27-3.65-3.73,0-2.01,1.22-3.72,3.59-3.72Zm-10.67.85c0-.48.33-.81.84-.81s.84.33.84.81v5.75c0,.48-.33.81-.84.81s-.84-.33-.84-.81v-5.75Zm-9.1.68h-1.58c-.48,0-.87-.24-.87-.68s.39-.68.87-.68h4.84c.48,0,.87.24.87.68s-.39.68-.87.68h-1.58v5.07c0,.48-.33.81-.84.81s-.84-.33-.84-.81v-5.07Zm-13.82-.68c0-.48.33-.81.84-.81s.84.33.84.81v3.89c0,.97.56,1.4,1.52,1.4s1.52-.43,1.52-1.4v-3.89c0-.48.33-.81.84-.81s.84.33.84.81v3.76c0,1.96-1.24,2.84-3.19,2.84s-3.19-.88-3.19-2.84v-3.76Zm-11.03.27c0-.72.39-.95.98-.95h3.93c.49,0,.85.14.85.65s-.36.65-.85.65h-3.23v1.54h2.84c.44,0,.79.12.79.62s-.35.62-.79.62h-2.84v1.72h3.32c.49,0,.85.14.85.65s-.36.65-.85.65h-4.01c-.59,0-.98-.23-.98-.95v-5.22Zm-8.13-1.12c1.92,0,2.97,1.17,2.97,1.86,0,.45-.26.73-.76.73-.97,0-.68-1.28-2.21-1.28-1.05,0-1.92.88-1.92,2.42,0,1.29.53,2.42,1.98,2.42,1.32,0,1.29-1.36,2.09-1.36.41,0,.82.23.82.62,0,1.03-1.29,2.05-2.91,2.05-2.3,0-3.65-1.27-3.65-3.73,0-2.01,1.22-3.72,3.59-3.72Zm-12.42.53c.14-.37.41-.49.82-.49h.4c.38,0,.71.09.9.59l2.02,5.44c.06.16.16.44.16.62,0,.4-.36.71-.79.71-.37,0-.63-.13-.76-.44l-.43-1.19h-2.69l-.44,1.19c-.11.32-.35.44-.74.44-.46,0-.78-.28-.78-.71,0-.18.1-.46.16-.62l2.16-5.54Zm1.01,1.26h-.02l-.99,2.86h1.96l-.95-2.86Zm-15.83-.96c0-.65.46-.8.91-.8h.49c.52,0,.77.2.94.74l1.46,4.57h.02l1.44-4.57c.17-.54.42-.74.94-.74h.47c.45,0,.91.15.91.8v5.78c0,.41-.2.79-.74.79s-.75-.39-.75-.79v-4.41h-.02l-1.56,4.72c-.11.34-.37.47-.71.47s-.6-.14-.71-.47l-1.56-4.72h-.02v4.41c0,.41-.2.79-.74.79s-.75-.39-.75-.79v-5.78Zm-11.61.28c0-.72.39-.95.98-.95h2.79c1.99,0,2.52,1.06,2.52,1.98,0,.77-.47,1.53-1.27,1.71v.02c.86.12,1.01.72,1.01,1.44,0,.82.22,1.13.22,1.46,0,.38-.4.63-.79.63-.92,0-.99-.86-.99-1.15,0-1.25-.24-1.75-1.15-1.75h-1.65v2.08c0,.48-.33.81-.84.81s-.84-.33-.84-.81v-5.48Zm1.67,2.21h1.67c.63,0,1.27-.16,1.27-.96s-.48-.96-1.21-.96h-1.72v1.92Zm-10.92-2.8c.14-.37.41-.49.82-.49h.4c.38,0,.71.09.9.59l2.02,5.44c.06.16.16.44.16.62,0,.4-.36.71-.79.71-.37,0-.63-.13-.75-.44l-.43-1.19h-2.69l-.44,1.19c-.11.32-.35.44-.74.44-.46,0-.78-.28-.78-.71,0-.18.1-.46.16-.62l2.16-5.54Zm1.01,1.26h-.02l-.99,2.86h1.96l-.95-2.86Zm-12.75-.68c0-.72.39-.95.98-.95h3.68c.49,0,.85.14.85.65s-.36.65-.85.65h-2.99v1.66h2.53c.44,0,.79.12.79.62s-.35.62-.79.62h-2.53v2.22c0,.48-.33.81-.84.81s-.84-.33-.84-.81v-5.48Z"/>
  <path class="cls-1" d="m247.4,17.04h0c-1.4,0-2.45,1.12-2.45,2.47s1.05,2.47,2.49,2.47c1.4.02,2.44-1.09,2.44-2.47s-1.03-2.47-2.46-2.47h-.02Zm.04-.62c1.83,0,3.26,1.38,3.26,3.1s-1.42,3.12-3.27,3.12-3.29-1.36-3.29-3.12,1.46-3.1,3.29-3.1h.02Z"/>
  <path class="cls-1" d="m248.03,18.94c0,.36-.4.49-1.09.45v-.89c.4-.07,1.08-.1,1.09.44m-1.11,2.18v-1.23h.35c.41,0,.6.15.66.49.1.36.16.62.25.74h.8c-.08-.1-.14-.28-.23-.76-.1-.41-.27-.66-.58-.75v-.04c.39-.11.66-.38.66-.74,0-.28-.14-.53-.31-.66-.23-.15-.51-.25-1.11-.25-.52,0-.94.06-1.23.11v3.08h.74Z"/>
</svg>