<?xml version="1.0" encoding="utf-8"?>
<!-- Generator: Adobe Illustrator 22.1.0, SVG Export Plug-In . SVG Version: 6.00 Build 0)  -->
<svg version="1.1" id="Calque_1" xmlns="http://www.w3.org/2000/svg" xmlns:xlink="http://www.w3.org/1999/xlink" x="0px" y="0px"
	 viewBox="0 0 912.5 229.7" style="enable-background:new 0 0 912.5 229.7;" xml:space="preserve">
<style type="text/css">
	.st0{fill:#552373;}
	.st1{fill:#B80E80;}
</style>
<g>
	<path class="st0" d="M699.2,98.4c-0.2-3.5-3.2-6.2-6.8-6.2L624.3,92c-2.9,0-5.3,2.3-5.3,5.3l-0.1,23c0,1.4,0.6,2.8,1.6,3.8
		c1,1,2.3,1.6,3.8,1.6h33.3c-3,10.9-12.6,24.7-38.1,24.7c-24.7,0-42.1-18.8-42.1-45.7c0-26.3,18.5-45.3,44-45.3
		c17.3,0,25.8,4,37.2,12.1c3.3,2.4,6.2,2.4,8.7,0.2l18.1-18.1c2.7-2.7,2.8-6,0.1-8.8c-6.6-6.9-27.2-23.9-64.8-23.9
		c-49,0-84.6,35.3-84.6,83.9c0,24.6,9,46.5,25.4,61.7c15.1,14,36.7,22.1,59.2,22.1c43.3,0,78.7-34.8,78.7-82.9
		C699.4,103.2,699.4,100.8,699.2,98.4z"/>
	<g>
		<path class="st0" d="M357.2,24.8h-62.3c-2.8,0-5,2.2-5,5l-0.1,149.9c0,1.3,0.6,2.6,1.4,3.6c1,1,2.2,1.4,3.6,1.4h62.3
			c49.4,0,82.6-32.4,82.6-80C439.8,57.1,406.6,24.8,357.2,24.8z M398.6,104.7c0,26.6-15.2,42.2-41.7,42.2h-27.3V62.6h27.3
			C383.3,62.6,398.6,78.1,398.6,104.7z"/>
		<path class="st0" d="M176.1,21c-49.3,0-79.9,31.7-79.9,82.8l-0.1,75.9c0,2.8,2.2,5,5,5h29.7c2.8,0,5-2.2,5-5v-75.9
			c0-27.7,14.7-43.6,40.2-43.6s40.2,15.9,40.2,43.6l-0.1,75.9c0,1.3,0.6,2.6,1.4,3.6c1,1,2.2,1.4,3.6,1.4h29.7c2.8,0,5-2.2,5-5
			v-75.9C256,52.7,225.4,21,176.1,21z"/>
	</g>
	<path class="st0" d="M503,184.7h-29.3c-3,0-5.3-2.4-5.3-5.3V30.2c0-3,2.4-5.3,5.3-5.3H503c3,0,5.3,2.4,5.3,5.3v149.1
		C508.3,182.3,506,184.7,503,184.7z"/>
	<path class="st0" d="M56.1,184.7H26.9c-3,0-5.3-2.4-5.3-5.3V30.2c0-3,2.4-5.3,5.3-5.3h29.3c3,0,5.3,2.4,5.3,5.3v149.1
		C61.5,182.3,59.1,184.7,56.1,184.7z"/>
	<path class="st1" d="M806.7,21c-47.4,0-83.2,36.5-83.2,82.9c0,42.2,29.5,68.1,80.4,105.4c1.8,1.3,4.2,1.3,6,0.1
		c46.3-32.3,80.2-63.2,80.2-105.5C890,57.2,854.1,21,806.7,21z M806.7,153.1c-24.5,0-44.4-21-44.4-46.9s19.8-46.9,44.4-46.9
		c24.5,0,44.4,21,44.4,46.9S831.2,153.1,806.7,153.1z"/>
</g>
</svg>
