<svg width="85" height="21" fill="none" xmlns="http://www.w3.org/2000/svg"><g clip-path="url(#clip0_402_163)" fill="#0099DA"><path d="M83.794 4.888c-.023.246-.061.49-.113.73-.058.24-.6 1.585-.64 1.807-.041.222-.01.266-.034.652-.165.072-.544.355-.745.355-.2 0-.68-.46-.89-.514 0-.567.14-.615.096-.91a4.872 4.872 0 00-.353-.977c-.112-.28-.028-.375-.043-.458a.55.55 0 00-.088.419c.052.314.302.786.337.993.035.206.025.445-.053.497a4.084 4.084 0 01-1.601-.521c-.38-.218-.773-.415-1.175-.588.07-.26.625-1.092.897-1.41a4.25 4.25 0 011.043-.909c.432-.254 1.193-.398 1.75-.343a6.61 6.61 0 011.09.2s.348-.29.616-.2c-.079.202-.163.41-.163.41l.347.209a4.95 4.95 0 00-.28.558m-15.576 5.175c.006.43.16.845.434 1.176l.01.008a7.433 7.433 0 01-.215-.853v-.571c0-.28.266-.94.357-1.164a1.899 1.899 0 00-.38.508c-.01.016-.016.031-.022.043a1.845 1.845 0 00-.177.678v.172m9.48-3.038a.19.19 0 00.07-.07c.052-.076.099-.156.14-.238 0-.15-.316-.14-.383-.189-.067-.049-.098-.131-.203-.179v.017a.734.734 0 000 .1c.02.098.029.197.028.297.003.128-.012.256-.044.38.058.022.116.047.171.077a.88.88 0 01.233-.195m-.054-1.156L76.43 4.483l-.798.666.031.098c.027.069.059.135.095.2.042.07.088.136.14.2.054.072.114.14.178.204.01.01.02.016.029.026.174.164.379.292.602.376.132.048.27.075.41.08l.55-.466-.006-.001zm-.598-2.29v-.364a.14.14 0 00-.038-.117.627.627 0 01-.13-.088.48.48 0 01-.039-.034.4.4 0 01-.252-.029.366.366 0 01-.121-.067.206.206 0 01-.073-.148c-.04 0-.08 0-.118-.01v.238a.568.568 0 01.026.169.548.548 0 01-.103.32.578.578 0 01-.46.244.797.797 0 000 .208c.008.063.074.235.1.327.059.167.092.341.1.518l.182-.154a25.01 25.01 0 01-.124-.448c-.028-.103-.057-.204-.082-.304a.74.74 0 00.492-.344c.103.036.209.064.316.084h.324zm.458-.468c.049-.05.038-.17-.055-.373a.8.8 0 00-.115-.122c-.072.035-.102.038-.127.05a.75.75 0 01-.064.093c-.016.02-.058.012-.074.026a.33.33 0 01-.121.15c.07.065.152.117.241.152.06.024.265.07.315.024zm.236-.838c.215-.125.4-.294.543-.496a.616.616 0 01-.115-.05 1.159 1.159 0 01-.37-.351 2.058 2.058 0 01-.588.81.38.38 0 01.03.078v.025a.578.578 0 010 .208c.176-.049.344-.121.5-.215m.612-.613a.03.03 0 00.007-.011.03.03 0 00.001-.014.53.53 0 00-.174-.293 1.189 1.189 0 00-.169-.14.209.209 0 00-.148-.046h-.008c-.008 0 0 .01 0 .014a.076.076 0 000 .049.72.72 0 00.183.258c.14.13.278.21.322.175m-1.295.546l-.311.024s-.152.107-.172.2a1.476 1.476 0 000 .192l.487.01a.41.41 0 000-.42m-.344.666c.255.02.24-.129.24-.129l-.44-.007s-.055.12.2.14m-.639-.521a.53.53 0 00-.14-.105c-.054.05-.127.12-.197.173a.326.326 0 01-.081.056.374.374 0 01-.113-.223.115.115 0 01.064-.113c.053-.02.104-.043.154-.07a.2.2 0 01.048-.1.716.716 0 00-.085-.152s-.068-.041-.14-.078a1.251 1.251 0 01-.147-.09c0 .083.008.14 0 .195v.323h-.114a.513.513 0 000-.066v-.218a11.5 11.5 0 00-.034-.419.29.29 0 00-.047-.011l-.087-.013h-.08c0 .016.044.308.055.36 0 .029.055.334.055.353v.012h-.108a4.838 4.838 0 00-.171-.723 1.153 1.153 0 00-.3.078h-.01a.926.926 0 00-.183.109l-.028.02a1.54 1.54 0 00-.11.13c-.052.07-.095.139-.125.18-.029.04-.02.062-.04.103-.02.04-.013.042-.018.064-.006.022-.007.046-.01.071l.018.007a1.36 1.36 0 00.383.054h.026a.936.936 0 00.13-.006v.007a.886.886 0 00.559.592l.045.015a.558.558 0 000 .069.788.788 0 010 .102l.09.01v-.091a.17.17 0 010-.038V2.48h.11v.098l.025.028c.04.043.082.092.121.14l.035.04.008.009.013.016c.03.035.058.07.085.107a.525.525 0 00.164-.148l.03-.042a.483.483 0 00.03-.06c0-.016.014-.028.018-.044a.051.051 0 00.01-.02.793.793 0 01.035-.083.223.223 0 01.09-.108.2.2 0 00-.045-.072m-1.51 3.906l-.066-.07-.041-.046v-.01l-.406.339 1.255 1.396.048-.04.738-.625a3.075 3.075 0 01-.697-.293 3.626 3.626 0 01-.724-.547l-.014-.017a.803.803 0 01-.049-.049.311.311 0 01-.037-.038m-.888.509l.37.297.905.735.069-.083-.924-1.039-.027-.028s-.007 0 0-.007l-.1-.113-.28.233-.013.005zm-.035.498h.013l.812.312.064.023-.745-.595-.035-.026-.109.286zm-5.658 5.468a7.726 7.726 0 00-.098-.395l-.25-.874-.353-1.228a1.833 1.833 0 01.066-1.189A1.804 1.804 0 0169.3 7.937c.058-.006.116-.014.173-.026a.561.561 0 00.082-.025l.061-.023.117-.049c.067-.03.14-.06.204-.088a3.876 3.876 0 011.016-.299 4.158 4.158 0 011.31.021c.257.046.51.117.753.213.091.032.184.058.28.076.155 0 .17-.166.363-.166.091.021.18.053.262.097 0 0-.026.039-.028.039a6.734 6.734 0 00-.796 1.908l-.024.097s2.572 1.038 2.58 1.044l.466-1.13s.473.33.72.476a4.718 4.718 0 000 .592c.043.77.18 1.91.223 2.263.037.044.064.088.124.088s.726-.072.909-.317l-.112-1.69-.082-1.24-.881-2.104-.14-.325-.259.624-1.066 2.56-2.29-.916v-.02c0-.007 0 0 0 0V9.59a6.618 6.618 0 01.837-1.955l.018-.047c0-.05 0-.04-.012-.053l-.601-.228.157-.405-.152-.122.042-.035.15-.124.246-.195.279-.236.124-.105.046-.038-.056-.077s-.09-.123-.14-.185a3.1 3.1 0 01-.394-.838 2.54 2.54 0 01-.092-.588V4.33a.774.774 0 01.198-.503l.016-.014a.76.76 0 01.252-.184.63.63 0 01.128-.058c0-.035 0-.072.007-.118l.075.012c.07.01.137.028.203.05h.015c-.02-.14-.177-.157-.229-.231a.078.078 0 01-.02-.052.09.09 0 01.015-.048.148.148 0 00.035-.082.086.086 0 00-.01-.04.064.064 0 00-.027-.031.149.149 0 00-.028-.016l-.034-.026-.044-.042a.99.99 0 01-.25-.488c0-.013 0-.027-.006-.043a.365.365 0 010-.057 1.014 1.014 0 010-.184c0-.019 0-.038.01-.056a.9.9 0 01.304-.514c.044-.037.09-.07.139-.1h.01a.882.882 0 01.18-.086l.032-.011h.022a1.213 1.213 0 01.337-.057h.367a.28.28 0 01.025.036l.01.014.07.13v.01a.172.172 0 00.027.034c.092.086.244.11.28.185l.164.335s.278.31.278.324c0 .057 0 .085.037.127.055-.015.11-.033.163-.054a1.13 1.13 0 01.014-.129c0-.011.196-.261.297-.254.025 0 .364-.028.365-.028.301-.237.51-.573.59-.948v-.027a.107.107 0 01.025-.04.156.156 0 01.139-.026.569.569 0 01.148.058 1.092 1.092 0 01.4.39.3.3 0 01.054.26l-.008.01c-.24.377-.6.66-1.022.802a.276.276 0 00-.035.018.684.684 0 01.18.294h.448v1.343c0 .02 0 .04-.01.059-.01.02 0 .024-.009.036a.611.611 0 01-.07.16c-.006.012-.015.022-.02.033a.623.623 0 01-.413.246c-.03 0-.06 0-.09.01h-.624l1.01 1.135s-.3.247-.403.345c.044.067.096.13.154.186.07.04.497.076.463.279a.428.428 0 01-.015.07c-.05.099-.11.192-.178.28-.07.09-.215.098-.264.248a.41.41 0 01.159.204 5.76 5.76 0 00.645-.92c.519.132 1.767.829 2.091.93.234.065.471.112.711.14a.958.958 0 00-.065.24c0 .031.102.06.215.13a.777.777 0 01.165.139c-.023.285.018.571.12.838.04.09.073.184.1.28.009.029.016.06.024.091.016.072.031.14.042.22.014.096.024.192.03.29v.186a.6.6 0 010 .068 3.35 3.35 0 01-.038.36c0 .024-.01.05-.017.078-.007.027-.014.075-.024.108a2.335 2.335 0 01-.143.424l-.01.023v.011a1.124 1.124 0 01-.262-.114 4.753 4.753 0 01-.14-.092 1.025 1.025 0 01-.126-.119c.074.16.185.302.325.41.023.018.048.038.075.055.018.01.038.018.058.024 0 0 .342.109.41.123.368.058.73.14 1.088.246.058.02.167-.116.49-.088.324.028.57.343.558.558-.013.215-.098.269-.128.393a69.4 69.4 0 00-.308 1.764 5.415 5.415 0 00-.023.371c0 .003.06.28.066.365v.047c0 .04-.003.079-.01.118a.602.602 0 01-.236.41.173.173 0 00-.008.025c-.018.066-.042.132-.064.199-.12.333-.31.638-.558.892v-.011l-.495-.948v-.01a2.17 2.17 0 01.402-.535c.02-.024.042-.043.064-.064.05-.046.103-.091.155-.14v-.043a.67.67 0 01.207-.483.563.563 0 01.06-.055c0-.038.074-1.466.016-1.994a1.45 1.45 0 01-.558-.21c-.049-.035-1.62.116-1.673.119-.053.003-.178-.059-.27-.057-.092.001-.239.022-.294.022a.488.488 0 01-.289-.095.454.454 0 01-.177-.264.273.273 0 01-.014-.073v-.054a.302.302 0 010-.05l.009-.052a.478.478 0 01.051-.12 1.635 1.635 0 01-.899-.683A1.548 1.548 0 0179 10.74c.098.4.348.746.697.964 0 .034-.008.067-.01.102a.701.701 0 00.017.187.75.75 0 00.181.353c.106.118.245.2.398.24-.126.463-.4 1.256-.4 1.313 0 .174-.437 1.03-.437 1.038 0 .362-.106.72-.15 1.027a1.419 1.419 0 00-.02.223c0 .06-.032.42-.053 1.016 0 .05-.02.058-.02.117.003.05.02.099.05.14v.01l.062.082a2.669 2.669 0 01.245.394c.024.05.048.097.069.146a2.64 2.64 0 01.203.73h-1.16a1.55 1.55 0 00.024-.205 1.559 1.559 0 00-.174-.764 1.159 1.159 0 00-.187-.33c.017-.17.047-.337.092-.502.07-.195.16-.382.267-.559 0 0 .073-1.396.073-1.46 0-.065-.1-.56-.139-.823a2.74 2.74 0 00-.227-.782c-.027-.05.125-.194.171-.28l-.029-.028h-.02c-.06.053-1.182.391-1.182.391a2.61 2.61 0 00-.345-.38 13.753 13.753 0 01-1.471-.188c-.7-.12-1.39-.299-2.062-.533-.114-.04-.224-.086-.33-.127a.04.04 0 00-.011.018v.058c0 .077-.006.154-.017.23-.03.291-.108.574-.231.839a1.723 1.723 0 01-.195.322.268.268 0 01-.014.028c.051.104.09.214.112.327.016.072.027.145.034.218.005.09.005.18 0 .27.48.58.918 1.192 1.312 1.832l.008.014a.578.578 0 01.279.52.72.72 0 01-.027.19.6.6 0 01-.094.195 2.25 2.25 0 01.068.65v.012c-.01.222-.054.44-.13.65-.018.04-.038.08-.061.118l-.885-.722-.021-.017c.04-.106.086-.21.14-.31a3.21 3.21 0 01.187-.306A.66.66 0 0173.4 17a.729.729 0 010-.078v-.071a.83.83 0 01.14-.435 7.992 7.992 0 00-.45-.666 4.612 4.612 0 00-.51-.546 1.65 1.65 0 00-.397-.14c.021 0-.01 0 0 0a9.855 9.855 0 01-.279-.04l-.312-.055h-.02l.077-.244v-.015a1.062 1.062 0 00-.044-.467l-.027-.059a.462.462 0 00-.053-.085c-.11-.14-.36-.468-.404-.518l.025-.03.013-.013a3.472 3.472 0 00.566-1.038c.053-.156.095-.316.126-.478.017-.075.03-.15.04-.23a.057.057 0 010-.021c.054-.035.104-.073.153-.113.14-.11.263-.239.366-.383a1.791 1.791 0 00.203-.342l-.037.056a2.002 2.002 0 01-.64.585l-.005.018a1.733 1.733 0 01-.22.107 3.935 3.935 0 01-.117.514 3.06 3.06 0 01-.09.254 3.013 3.013 0 01-.182.396 3.159 3.159 0 01-.268.42c-.025.031-.047.064-.072.091a3.052 3.052 0 01-.686.623 2.68 2.68 0 01-.44.232c-.045.018-.089.038-.132.052-.033.14-.224.343-.36.463a1.088 1.088 0 00-.221.2 2.134 2.134 0 00-.241.559 8.964 8.964 0 00-.21.987c0 .056-.024.295-.024.352 0 .058.168.625.168.686a.022.022 0 000 .017c.259.194.46.453.586.751.075.169.126.348.15.53h-.987a2.376 2.376 0 00-.643-1.295.195.195 0 01-.024-.092 2.256 2.256 0 01.155-.61.584.584 0 00.062-.186c0-.06.1-1.225.092-1.269-.017-.022-.2-.614-.382-.853.057-.074.12-.143.188-.207a.89.89 0 00.315-.456c.01-.052.053-.056.053-.116a.1.1 0 00-.01-.055 1.295 1.295 0 01-.775.254 1.19 1.19 0 00.4-1.218M.952 18.68V4.478h7.249v2.4H3.6v3.264h3.508v2.401H3.596v3.738h4.792v2.4H.952zM15.23 8.432c-.218-.669-.48-1.154-.786-1.456a1.574 1.574 0 00-1.15-.452c-.472 0-.836.14-1.083.419-.246.28-.373.655-.373 1.14a1.23 1.23 0 00.44.934c.335.299.701.56 1.093.778.434.248.907.514 1.418.796.507.279.983.612 1.419.993.438.387.807.846 1.091 1.357.308.581.46 1.232.44 1.889a4.498 4.498 0 01-.296 1.676 3.509 3.509 0 01-.862 1.278 3.823 3.823 0 01-1.393.817c-.6.196-1.229.29-1.86.279a4.36 4.36 0 01-2.803-.947c-.785-.63-1.356-1.647-1.715-3.049l2.605-.571c.06.378.173.746.336 1.092.127.267.299.51.508.718a1.744 1.744 0 001.209.511 1.63 1.63 0 001.158-.442c.314-.296.47-.712.47-1.25a1.645 1.645 0 00-.441-1.15 5.34 5.34 0 00-1.093-.895 18.25 18.25 0 00-1.417-.816 8.842 8.842 0 01-1.411-.925 4.978 4.978 0 01-1.093-1.21 3.069 3.069 0 01-.44-1.692c0-1.232.347-2.202 1.043-2.91.697-.709 1.735-1.063 3.115-1.063a4.663 4.663 0 011.59.255c.456.161.878.405 1.246.718.358.31.66.68.891 1.092.241.431.419.895.527 1.378l-2.384.708zm11.71-3.954v2.4h-3.086V18.68h-2.649V6.877h-3.083v-2.4h8.818zM25.215 18.68l3.43-14.202h3.393l3.335 14.202h-2.53l-.671-2.99h-3.66l-.748 2.99h-2.55zm3.78-5.39h2.62l-1.283-5.748h-.038l-1.299 5.749zm6.934-8.812h3.678a6.975 6.975 0 012.013.27c.56.162 1.073.455 1.495.857.43.425.754.945.949 1.518.242.733.368 1.5.374 2.272v4.368a7.444 7.444 0 01-.374 2.272 3.92 3.92 0 01-.95 1.524 3.622 3.622 0 01-1.494.856 6.974 6.974 0 01-2.012.265h-3.68V4.478zm2.648 11.803h.92c.728 0 1.293-.207 1.695-.62.403-.414.605-1.152.605-2.214V9.71c0-1.009-.176-1.733-.528-2.174-.352-.44-.943-.66-1.772-.659h-.92v9.404zm5.822 2.399l3.43-14.202h3.393l3.335 14.202h-2.53l-.671-2.99h-3.66l-.748 2.99h-2.55zm8.587-17.645a6.381 6.381 0 01-.25.895c-.096.27-.228.524-.393.757a1.77 1.77 0 01-.604.532 1.829 1.829 0 01-.88.196c-.257 0-.513-.036-.759-.108a11.205 11.205 0 01-.718-.236c-.23-.084-.457-.163-.68-.236a2.14 2.14 0 00-.66-.109.72.72 0 00-.577.246 1.325 1.325 0 00-.287.581h-1.207c.05-.307.13-.608.24-.9a2.74 2.74 0 01.43-.766c.175-.22.393-.4.642-.53a1.89 1.89 0 01.892-.198c.256-.001.51.037.754.112.25.08.488.16.718.246.23.085.447.167.652.246.17.072.352.112.537.118a.787.787 0 00.584-.246c.16-.165.27-.374.317-.6h1.249zM48.175 13.29H50.8l-1.284-5.75h-.038l-1.303 5.75zm6.419-4.248a6.606 6.606 0 01.33-2.224c.184-.55.492-1.052.9-1.465a3.443 3.443 0 011.38-.817 6.211 6.211 0 013.527 0c.518.16.99.44 1.38.817.407.414.714.915.897 1.465a6.61 6.61 0 01.327 2.224v5.074a6.6 6.6 0 01-.327 2.225 3.803 3.803 0 01-.9 1.465 3.43 3.43 0 01-1.38.817 6.21 6.21 0 01-3.527 0 3.45 3.45 0 01-1.38-.817 3.804 3.804 0 01-.898-1.465 6.603 6.603 0 01-.326-2.224l-.003-5.075zm2.649 5.429c0 .786.153 1.317.46 1.593.306.277.728.417 1.264.42.536 0 .958-.14 1.265-.42.306-.279.46-.81.46-1.593V8.687c0-.787-.154-1.318-.46-1.593-.307-.276-.729-.416-1.265-.42-.537 0-.958.14-1.264.42-.306.279-.46.81-.46 1.593v5.784z"/></g><defs><clipPath id="clip0_402_163"><path fill="#fff" d="M0 0h85v20.041H0z"/></clipPath></defs></svg>