<?xml version="1.0" encoding="UTF-8"?>
<svg id="Camada_1" data-name="Camada 1" xmlns="http://www.w3.org/2000/svg" viewBox="0 0 957.44 194.35">
  <defs>
    <style>
      .cls-1 {
        fill: #fff;
      }

      .cls-1, .cls-2 {
        stroke-width: 0px;
      }

      .cls-2 {
        fill: #003087;
      }
    </style>
  </defs>
  <path class="cls-2" d="m915.53,0c25.34,0,41.91,16.54,41.91,41.81v110.72c0,25.3-16.58,41.81-41.91,41.81H41.91c-25.33,0-41.91-16.51-41.91-41.81V41.81C0,16.54,16.58,0,41.91,0h873.61Zm-496.93,102.33c0,24.93,20.09,45.24,45.07,45.24s45.71-20.19,45.71-45.46-20.25-45.34-45.21-45.34-45.57,20.29-45.57,45.56m-49.85,36.36l19.74-51.92,7.07,52.77c.61,4.6,3.91,6.44,7.92,6.44h10.12l-13.66-87.63h-15.35l-22.79,59.54-22.79-59.54h-15.47l-13.65,87.63h16.57l7.91-60.16,17.91,46.54c1.72,4.25,4.27,6.33,8.53,6.33h7.92Zm-156.23-52.4c0-17.27-12.06-27.94-28.75-27.94h-29.37v80.94c0,4.64,2.06,6.69,6.71,6.69h9.74v-32.34h11.34l14,27.36c1.82,3.64,4.26,4.98,8.4,4.98h13.17l-20.11-35.49c8.77-4.26,14.86-12.89,14.86-24.2m503.53-27.94v80.94c0,4.64,2.07,6.69,6.68,6.69h9.26v-60.89l38.16,54.82c3.04,4.38,5.96,6.08,10.47,6.08h9.39V58.35h-15.98v61.99l-42.4-61.99h-15.59Zm-195.48,0v80.94c0,4.64,2.07,6.69,6.72,6.69h9.26v-60.89l38.14,54.82c3.04,4.38,5.98,6.08,10.47,6.08h9.39V58.35h-15.97v61.99l-42.4-61.99h-15.61Zm-235.18,81.67c1.46,4.01,3.9,5.96,7.91,5.96h11.84l-33.88-87.63h-16.7l-33.64,87.63h17.18l6.82-19.32h35.58l4.88,13.36Zm578.47,0c1.47,4.01,3.89,5.96,7.9,5.96h11.84l-33.87-87.63h-16.71l-33.64,87.63h17.18l6.84-19.32h35.56l4.89,13.36Zm-427.48-37.79c0-15.81,12.29-28.82,27.54-28.82s27.66,13.01,27.66,28.82-12.42,28.67-27.66,28.67-27.54-12.88-27.54-28.67m192.89-28.21v65.27c0,4.64,2.07,6.69,6.72,6.69h10.6v-71.96h24.25v-15.67h-65.81v8.99c0,4.6,2.07,6.67,6.7,6.67h17.54Zm-526.91,0v65.27c0,4.64,2.08,6.69,6.72,6.69h10.6v-71.96h24.25v-15.67h-65.83v8.99c0,4.6,2.07,6.67,6.72,6.67h17.54Zm596.98-15.67h-17.29v80.94c0,4.64,2.07,6.69,6.68,6.69h10.6V58.35Zm-528.48,15.06h11.46c6.2,0,13.27,2.91,13.27,12.76s-7.07,12.54-13.27,12.54h-11.46v-25.29Zm670.33,3.77l12.3,34.16h-24.61l12.31-34.16Zm-578.47,0l12.32,34.16h-24.61l12.29-34.16Z"/>
  <path class="cls-1" d="m418.6,102.33c0,24.93,20.09,45.24,45.07,45.24s45.71-20.19,45.71-45.46-20.25-45.34-45.21-45.34-45.57,20.29-45.57,45.56m-49.85,36.36l19.74-51.92,7.07,52.77c.61,4.6,3.91,6.44,7.92,6.44h10.12l-13.66-87.63h-15.35l-22.79,59.54-22.79-59.54h-15.47l-13.65,87.63h16.57l7.91-60.16,17.91,46.54c1.72,4.25,4.27,6.33,8.53,6.33h7.92Zm-156.23-52.4c0-17.27-12.06-27.94-28.75-27.94h-29.37v80.94c0,4.64,2.06,6.69,6.71,6.69h9.74v-32.34h11.34l14,27.36c1.82,3.64,4.26,4.98,8.4,4.98h13.17l-20.11-35.49c8.77-4.26,14.86-12.89,14.86-24.2m503.53-27.94v80.94c0,4.64,2.07,6.69,6.68,6.69h9.26v-60.89l38.16,54.82c3.04,4.38,5.96,6.08,10.47,6.08h9.39V58.35h-15.98v61.99l-42.4-61.99h-15.59Zm-195.48,0v80.94c0,4.64,2.07,6.69,6.72,6.69h9.26v-60.89l38.14,54.82c3.04,4.38,5.98,6.08,10.47,6.08h9.39V58.35h-15.97v61.99l-42.4-61.99h-15.61Zm-235.18,81.67c1.46,4.01,3.9,5.96,7.91,5.96h11.84l-33.88-87.63h-16.7l-33.64,87.63h17.18l6.82-19.32h35.58l4.88,13.36Zm578.47,0c1.47,4.01,3.89,5.96,7.9,5.96h11.84l-33.87-87.63h-16.71l-33.64,87.63h17.18l6.84-19.32h35.56l4.89,13.36Zm-427.48-37.79c0-15.81,12.29-28.82,27.54-28.82s27.66,13.01,27.66,28.82-12.42,28.67-27.66,28.67-27.54-12.88-27.54-28.67m192.89-28.21v65.27c0,4.64,2.07,6.69,6.72,6.69h10.6v-71.96h24.25v-15.67h-65.81v8.99c0,4.6,2.07,6.67,6.7,6.67h17.54Zm-526.91,0v65.27c0,4.64,2.08,6.69,6.72,6.69h10.6v-71.96h24.25v-15.67h-65.83v8.99c0,4.6,2.07,6.67,6.72,6.67h17.54Zm596.98-15.67h-17.29v80.94c0,4.64,2.07,6.69,6.68,6.69h10.6V58.35Zm-528.48,15.06h11.46c6.2,0,13.27,2.91,13.27,12.76s-7.07,12.54-13.27,12.54h-11.46v-25.29Zm670.33,3.77l12.3,34.16h-24.61l12.31-34.16Zm-578.47,0l12.32,34.16h-24.61l12.29-34.16Z"/>
</svg>